<svg width="195" height="378" viewBox="0 0 195 378" version="1.1" xmlns="http://www.w3.org/2000/svg" xmlns:xlink="http://www.w3.org/1999/xlink">
<title>Group 8</title>
<desc>Created using Figma</desc>
<g id="Canvas" transform="translate(-11 268)">
<g id="Group 8">
<g id="Group 6.1">
<g id="Group 5" filter="url(#filter0_d)">
<g id="Rectangle">
<use xlink:href="#path0_fill" transform="matrix(0.605608 0.795763 -0.795763 0.605608 32.067 -52)" fill="#D1B664"/>
</g>
<g id="Ellipse 10">
<use xlink:href="#path1_fill" transform="translate(22 -138)" fill="#FFE4C4"/>
</g>
<g id="Ellipse 10.1">
<use xlink:href="#path2_fill" transform="matrix(-1 0 0 1 166 -138)" fill="#FFE4C4"/>
</g>
<g id="Ellipse 8">
<use xlink:href="#path3_fill" transform="translate(26 -167)" fill="#7DACE4"/>
</g>
<g id="Group 3">
<g id="Ellipse">
<use xlink:href="#path4_fill" transform="translate(49.6259 -264.289)" fill="#FFE4C4"/>
</g>
<g id="Ellipse 2">
<use xlink:href="#path5_fill" transform="translate(42 -268)" fill="#333333"/>
</g>
<g id="Group 2">
<g id="Ellipse 3">
<use xlink:href="#path6_fill" transform="translate(70.0194 -219.283)" fill="#F0F0F0"/>
<mask id="mask0_outline_ins">
<use xlink:href="#path6_fill" fill="white" transform="translate(70.0194 -219.283)"/>
</mask>
<g mask="url(#mask0_outline_ins)">
<use xlink:href="#path7_stroke_2x" transform="translate(70.0194 -219.283)" fill="#EDD4B7"/>
</g>
</g>
<g id="Ellipse 3.1">
<use xlink:href="#path8_fill" transform="translate(105.629 -219.084)" fill="#F0F0F0"/>
<mask id="mask1_outline_ins">
<use xlink:href="#path8_fill" fill="white" transform="translate(105.629 -219.084)"/>
</mask>
<g mask="url(#mask1_outline_ins)">
<use xlink:href="#path9_stroke_2x" transform="translate(105.629 -219.084)" fill="#EDD4B7"/>
</g>
</g>
<g id="Ellipse 8">
<use xlink:href="#path10_fill" transform="translate(71 -222.703)" fill="#333333"/>
</g>
<g id="Ellipse 8.1">
<use xlink:href="#path11_fill" transform="matrix(-1 0 0 1 121 -223)" fill="#333333"/>
</g>
<g id="Ellipse 4.1">
<use xlink:href="#path12_fill" transform="matrix(0.95897 -0.283508 0.204487 0.978869 112.049 -208.19)" fill="#FFE4C4"/>
</g>
<g id="Ellipse 5">
<use xlink:href="#path13_fill" transform="translate(76.7405 -214.197)" fill="#333333"/>
</g>
<g id="Ellipse 5.1">
<use xlink:href="#path14_fill" transform="translate(112.328 -214.197)" fill="#333333"/>
</g>
<g id="Ellipse 4">
<use xlink:href="#path15_fill" transform="matrix(0.959626 0.28128 -0.202814 0.979217 69.7152 -211.591)" fill="#FFE4C4"/>
</g>
<g id="Ellipse 6">
<use xlink:href="#path16_fill" transform="translate(80.1298 -181.099)" fill="#F2F2F2"/>
<mask id="mask2_outline_ins">
<use xlink:href="#path16_fill" fill="white" transform="translate(80.1298 -181.099)"/>
</mask>
<g mask="url(#mask2_outline_ins)">
<use xlink:href="#path17_stroke_2x" transform="translate(80.1298 -181.099)" fill="#EDD4B7"/>
</g>
</g>
<g id="Ellipse 7">
<use xlink:href="#path18_stroke" transform="translate(91.145 -200.282)" fill="#EDD4B7"/>
</g>
</g>
</g>
<g id="Ellipse 9">
<use xlink:href="#path19_fill" transform="translate(54 -138)" fill="#7DACE4"/>
</g>
<g id="Group 4">
<g id="Ellipse 12">
<use xlink:href="#path20_fill" transform="translate(56 -52)" fill="#2C3E50"/>
</g>
<g id="Ellipse 12.1">
<use xlink:href="#path21_fill" transform="matrix(-1 0 0 1 136 -52)" fill="#2C3E50"/>
</g>
<g id="Ellipse 11">
<use xlink:href="#path22_fill" transform="translate(56 -48)" fill="#2C3E50"/>
</g>
<g id="Rectangle">
<use xlink:href="#path23_fill" transform="translate(56 -53)" fill="#2E2E2E"/>
</g>
</g>
<g id="Ellipse 11.1">
<use xlink:href="#path24_fill" transform="translate(110 71)" fill="#333333"/>
</g>
<g id="Ellipse 11.2">
<use xlink:href="#path25_fill" transform="translate(56 72)" fill="#333333"/>
</g>
<g id="Ellipse 2">
<use xlink:href="#path26_fill" transform="matrix(0.884528 0.466488 -0.466488 0.884528 58.5759 -223)" fill="#FFE4C4"/>
</g>
<g id="Rectangle">
<use xlink:href="#path27_fill" transform="translate(83 -53)" fill="#C4C4C4"/>
</g>
<g id="Line">
<use xlink:href="#path28_stroke" transform="translate(103 -128)" fill="#668EBD"/>
</g>
<g id="Line 2">
<use xlink:href="#path29_stroke" transform="matrix(6.12323e-17 1 -1 6.12323e-17 106 -134)"/>
</g>
<g id="Rectangle 2">
<use xlink:href="#path30_fill" transform="translate(106 -136)" fill="#C4C4C4"/>
</g>
<g id="Line 3">
<use xlink:href="#path31_stroke" transform="matrix(6.12323e-17 1 -1 6.12323e-17 108 -136)" fill="#C4C4C4"/>
</g>
<g id="Rectangle 3">
<use xlink:href="#path32_fill" transform="translate(115 -135)" fill="#F2C94C"/>
</g>
<g id="Rectangle 4">
<use xlink:href="#path30_fill" transform="translate(115 -137)" fill="#EB5757"/>
</g>
</g>
<g id="BD">
<use xlink:href="#path33_fill" transform="translate(71 -113)" fill="#F2F2F2"/>
</g>
</g>
<g id="Group 7">
<g id="Ellipse" filter="url(#filter1_d)">
<use xlink:href="#path34_fill" transform="translate(78 -138)" fill="url(#paint35_linear)"/>
</g>
<g id="Group 8">
<g id="Vector">
<use xlink:href="#path35_fill" transform="translate(34 -141)" fill="url(#paint36_linear)"/>
</g>
<g id="Rectangle">
<use xlink:href="#path36_fill" transform="matrix(0.784184 -0.620529 0.620529 0.784184 18 -64.7947)" fill="#D1B664"/>
</g>
</g>
<g id="Line" filter="url(#filter2_d)">
<use xlink:href="#path37_stroke" transform="matrix(0.00736819 0.999973 -0.999941 0.0108185 138.903 -134.591)" fill="#4F4F4F"/>
</g>
</g>
</g>
</g>
<defs>
<filter id="filter0_d" filterUnits="userSpaceOnUse" x="11" y="-268" width="160" height="378" color-interpolation-filters="sRGB">
<feFlood flood-opacity="0" result="BackgroundImageFix"/>
<feColorMatrix in="SourceAlpha" type="matrix" values="0 0 0 0 0 0 0 0 0 0 0 0 0 0 0 0 0 0 255 0"/>
<feOffset dx="0" dy="4"/>
<feGaussianBlur stdDeviation="2"/>
<feColorMatrix type="matrix" values="0 0 0 0 0 0 0 0 0 0 0 0 0 0 0 0 0 0 0.25 0"/>
<feBlend mode="normal" in2="BackgroundImageFix" result="effect1_dropShadow"/>
<feBlend mode="normal" in="SourceGraphic" in2="effect1_dropShadow" result="shape"/>
</filter>
<filter id="filter1_d" filterUnits="userSpaceOnUse" x="74" y="-138" width="132" height="161" color-interpolation-filters="sRGB">
<feFlood flood-opacity="0" result="BackgroundImageFix"/>
<feColorMatrix in="SourceAlpha" type="matrix" values="0 0 0 0 0 0 0 0 0 0 0 0 0 0 0 0 0 0 255 0"/>
<feOffset dx="0" dy="4"/>
<feGaussianBlur stdDeviation="2"/>
<feColorMatrix type="matrix" values="0 0 0 0 0 0 0 0 0 0 0 0 0 0 0 0 0 0 0.25 0"/>
<feBlend mode="normal" in2="BackgroundImageFix" result="effect1_dropShadow"/>
<feBlend mode="normal" in="SourceGraphic" in2="effect1_dropShadow" result="shape"/>
</filter>
<filter id="filter2_d" filterUnits="userSpaceOnUse" x="134" y="-135" width="11" height="158" color-interpolation-filters="sRGB">
<feFlood flood-opacity="0" result="BackgroundImageFix"/>
<feColorMatrix in="SourceAlpha" type="matrix" values="0 0 0 0 0 0 0 0 0 0 0 0 0 0 0 0 0 0 255 0"/>
<feOffset dx="0" dy="4"/>
<feGaussianBlur stdDeviation="2"/>
<feColorMatrix type="matrix" values="0 0 0 0 0 0 0 0 0 0 0 0 0 0 0 0 0 0 0.25 0"/>
<feBlend mode="normal" in2="BackgroundImageFix" result="effect1_dropShadow"/>
<feBlend mode="normal" in="SourceGraphic" in2="effect1_dropShadow" result="shape"/>
</filter>
<linearGradient id="paint35_linear" x1="0" y1="0" x2="1" y2="0" gradientUnits="userSpaceOnUse" gradientTransform="matrix(7.59281e-15 153 -124 9.36855e-15 124 -9.36855e-15)">
<stop offset="0" stop-color="#828282"/>
<stop offset="1" stop-color="#B8B8B8"/>
</linearGradient>
<linearGradient id="paint36_linear" x1="0" y1="0" x2="1" y2="0" gradientUnits="userSpaceOnUse" gradientTransform="matrix(6.61309e-15 96 -108 5.8783e-15 108 -5.8783e-15)">
<stop offset="0" stop-color="#FFFFFF"/>
<stop offset="1" stop-color="#878787"/>
</linearGradient>
<path id="path0_fill" d="M 0 0L 10 0L 10 21.4473L 0 21.4473L 0 0Z"/>
<path id="path1_fill" d="M 23 49.5112C 23 75.1863 20.3707 96 13.123 96C 5.87538 96 0 75.1863 0 49.5112C 0 23.8362 5.87538 3.02246 13.123 3.02246C 52.9296 -10.4201 23 23.8362 23 49.5112Z"/>
<path id="path2_fill" d="M 22.9206 51.8196C 22.9206 78.4289 17.7896 100 11.4603 100C 5.13095 100 0 78.4289 0 51.8196C 0 25.2104 8.02341 -0.0113864 13.7544 3.09777C 48.5173 -10.8339 22.9206 25.2104 22.9206 51.8196Z"/>
<path id="path3_fill" d="M 139 33.5362C 139 44.1634 108.761 38.4842 70.0888 38.4842C 31.4164 38.4842 0 42.1271 0 31.5C 0 20.8729 31.4164 0 70.0888 0C 108.761 0 139 22.9091 139 33.5362Z"/>
<path id="path4_fill" d="M 93.5847 55.6447C 93.5847 86.3764 72.6351 111.289 46.7924 111.289C 20.9497 111.289 0 86.3764 0 55.6447C 0 24.913 20.9497 0 46.7924 0C 72.6351 0 93.5847 24.913 93.5847 55.6447Z"/>
<path id="path5_fill" d="M 107.748 42.5566C 123.122 105.356 80.3408 32.2226 55.6077 24.2734C 30.8745 29.8378 -12.5755 98.9963 3.4676 39.3769C 3.4676 8.6452 28.8692 -6.72869 55.6077 2.8104C 77.6669 -6.72869 107.748 9.1698 107.748 42.5566Z"/>
<path id="path6_fill" d="M 17.38 6.3594C 17.38 9.87159 13.4894 12.7188 8.69001 12.7188C 3.89065 12.7188 0 9.87159 0 6.3594C 0 2.8472 3.89065 0 8.69001 0C 13.4894 0 17.38 2.8472 17.38 6.3594Z"/>
<path id="path7_stroke_2x" d="M 16.38 6.3594C 16.38 7.71947 15.6288 9.03595 14.2442 10.0492C 12.8603 11.0619 10.8999 11.7188 8.69001 11.7188L 8.69001 13.7188C 11.2795 13.7188 13.664 12.9521 15.4253 11.6632C 17.1859 10.3747 18.38 8.51152 18.38 6.3594L 16.38 6.3594ZM 8.69001 11.7188C 6.48013 11.7188 4.51967 11.0619 3.13581 10.0492C 1.75125 9.03595 1 7.71947 1 6.3594L -1 6.3594C -1 8.51152 0.194072 10.3747 1.95468 11.6632C 3.71598 12.9521 6.10053 13.7188 8.69001 13.7188L 8.69001 11.7188ZM 1 6.3594C 1 4.99932 1.75125 3.68284 3.13581 2.66962C 4.51967 1.6569 6.48013 1 8.69001 1L 8.69001 -1C 6.10053 -1 3.71598 -0.233296 1.95468 1.05563C 0.194072 2.34406 -1 4.20727 -1 6.3594L 1 6.3594ZM 8.69001 1C 10.8999 1 12.8603 1.6569 14.2442 2.66962C 15.6288 3.68284 16.38 4.99932 16.38 6.3594L 18.38 6.3594C 18.38 4.20727 17.1859 2.34406 15.4253 1.05563C 13.664 -0.233296 11.2795 -1 8.69001 -1L 8.69001 1Z"/>
<path id="path8_fill" d="M 16.8708 6.3594C 16.8708 9.87159 13.4894 12.7188 8.69001 12.7188C 3.89065 12.7188 0 9.87159 0 6.3594C 0 2.8472 3.89065 0 8.69001 0C 13.4894 0 16.8708 2.8472 16.8708 6.3594Z"/>
<path id="path9_stroke_2x" d="M 15.8708 6.3594C 15.8708 9.11882 13.1616 11.7188 8.69001 11.7188L 8.69001 13.7188C 13.8171 13.7188 17.8708 10.6244 17.8708 6.3594L 15.8708 6.3594ZM 8.69001 11.7188C 6.48013 11.7188 4.51967 11.0619 3.13581 10.0492C 1.75125 9.03595 1 7.71947 1 6.3594L -1 6.3594C -1 8.51152 0.194072 10.3747 1.95468 11.6632C 3.71598 12.9521 6.10053 13.7188 8.69001 13.7188L 8.69001 11.7188ZM 1 6.3594C 1 4.99932 1.75125 3.68284 3.13581 2.66962C 4.51967 1.6569 6.48013 1 8.69001 1L 8.69001 -1C 6.10053 -1 3.71598 -0.233296 1.95468 1.05563C 0.194072 2.34406 -1 4.20727 -1 6.3594L 1 6.3594ZM 8.69001 1C 13.1616 1 15.8708 3.59998 15.8708 6.3594L 17.8708 6.3594C 17.8708 2.09442 13.8171 -1 8.69001 -1L 8.69001 1Z"/>
<path id="path10_fill" d="M 17 5.6545C 17 6.14588 12.7688 2.75702 8.22581 2.75702C 3.68282 2.75702 0 2.587 0 2.09562C 0 1.60424 3.83871 -0.686514 8.22581 0.203201C 13.1613 0.203201 17 5.16312 17 5.6545Z"/>
<path id="path11_fill" d="M 17 5.94876C 17 6.46571 12.7688 2.9005 8.22581 2.9005C 3.68282 2.9005 0 2.72163 0 2.20468C 0 1.68773 3.83871 -0.722241 8.22581 0.213776C 13.1613 0.213776 17 5.43181 17 5.94876Z"/>
<path id="path12_fill" d="M 11.9967 1.90655C 11.9967 2.95951 9.31112 3.8131 5.99833 3.8131C 2.68554 3.8131 0 2.95951 0 1.90655C 0 0.853592 2.68554 0 5.99833 0C 9.31112 0 11.9967 0.853592 11.9967 1.90655Z"/>
<path id="path13_fill" d="M 4.31068 2.56404C 4.31068 3.98012 3.3457 5.12808 2.15534 5.12808C 0.964976 5.12808 -2.82826e-06 3.98012 -2.82826e-06 2.56404C -2.82826e-06 1.14795 0.964976 -5.61588e-06 2.15534 -5.61588e-06C 3.3457 -5.61588e-06 4.31068 1.14795 4.31068 2.56404Z"/>
<path id="path14_fill" d="M 4.31068 2.56404C 4.31068 3.98012 3.3457 5.12808 2.15534 5.12808C 0.964978 5.12808 0 3.98012 0 2.56404C 0 1.14796 0.964978 0 2.15534 0C 3.3457 0 4.31068 1.14796 4.31068 2.56404Z"/>
<path id="path15_fill" d="M 11.9944 1.90682C 11.9944 2.95992 9.30936 3.81363 5.9972 3.81363C 2.68504 3.81363 0 2.95992 0 1.90682C 0 0.853711 2.68504 0 5.9972 0C 9.30936 0 11.9944 0.853711 11.9944 1.90682Z"/>
<path id="path16_fill" d="M 32.1985 0.297354C 32.1985 1.322 24.9906 7.71848 16.0992 7.71848C 7.20787 7.71848 0 1.322 0 0.297354C 0 -0.72729 7.20787 1.225 16.0992 1.225C 24.9906 1.225 32.1985 -0.72729 32.1985 0.297354Z"/>
<path id="path17_stroke_2x" d="M 31.1985 0.297354C 31.1985 0.110902 31.2655 0.0180679 31.2329 0.0792466C 31.2035 0.137271 31.1704 0.185079 31.0851 0.292624C 30.9 0.529946 30.6401 0.803727 30.2591 1.15066C 29.4784 1.86477 28.3814 2.69897 26.9732 3.53197C 24.1288 5.22184 20.3569 6.73631 16.0992 6.71848L 16.0992 8.71848C 20.7329 8.70066 25.0107 7.01689 27.9931 5.25236C 29.4982 4.35815 30.7589 3.40111 31.6076 2.62769C 32.0412 2.23087 32.4139 1.83682 32.6577 1.52821C 32.7869 1.36279 32.9173 1.1681 32.9979 1.01986C 33.0752 0.874768 33.1985 0.611886 33.1985 0.297354L 31.1985 0.297354ZM 16.0992 6.71848C 11.8415 6.73631 8.06971 5.22184 5.22532 3.53197C 3.81704 2.69897 2.72007 1.86477 1.9394 1.15066C 1.55841 0.803727 1.29852 0.529946 1.11342 0.292624C 1.02809 0.185079 0.995021 0.137271 0.965622 0.0792466C 0.933018 0.0180679 1 0.110902 1 0.297354L -1 0.297354C -1 0.611886 -0.876707 0.874768 -0.799385 1.01986C -0.718859 1.1681 -0.588388 1.36279 -0.459262 1.52821C -0.215447 1.83682 0.157241 2.23087 0.59092 2.62769C 1.43958 3.40111 2.70029 4.35815 4.20539 5.25236C 7.18779 7.01689 11.4656 8.70066 16.0992 8.71848L 16.0992 6.71848ZM 1 0.297354C 1 0.58313 0.850867 0.810821 0.690167 0.93358C 0.572995 1.02309 0.486258 1.03134 0.531035 1.02201C 0.612941 1.00494 0.821025 0.989941 1.21742 1.00889C 1.99362 1.04524 3.13507 1.18927 4.59273 1.36939C 7.50724 1.72951 11.5933 2.22318 16.0992 2.225L 16.0992 0.224995C 11.7139 0.226815 7.75025 -0.255667 4.83799 -0.615519C 3.38225 -0.795396 2.16603 -0.947315 1.3129 -0.988834C 0.894625 -1.00882 0.47013 -1.00825 0.123123 -0.935952C -0.0465555 -0.900601 -0.296832 -0.829231 -0.52393 -0.655749C -0.794556 -0.449017 -1 -0.116503 -1 0.297354L 1 0.297354ZM 16.0992 2.225C 20.6052 2.22318 24.6912 1.72951 27.6057 1.36939C 29.0634 1.18927 30.2049 1.04524 30.9811 1.00889C 31.3774 0.989941 31.5855 1.00494 31.6674 1.02201C 31.7122 1.03134 31.6255 1.02309 31.5083 0.93358C 31.3476 0.810821 31.1985 0.58313 31.1985 0.297354L 33.1985 0.297354C 33.1985 -0.116503 32.993 -0.449017 32.7224 -0.655749C 32.4953 -0.829231 32.245 -0.900601 32.0754 -0.935952C 31.7283 -1.00825 31.3039 -1.00882 30.8856 -0.988834C 30.0324 -0.947315 28.8162 -0.795396 27.3605 -0.615519C 24.4482 -0.255667 20.4846 0.226815 16.0992 0.224995L 16.0992 2.225Z"/>
<path id="path18_stroke" d="M 4.66031 -0.5C 1.81259 -0.5 -0.5 1.79821 -0.5 4.6382L 0.5 4.6382C 0.5 2.35498 2.36039 0.5 4.66031 0.5L 4.66031 -0.5ZM -0.5 4.6382C -0.5 7.47819 1.81259 9.77641 4.66031 9.77641L 4.66031 8.77641C 2.36039 8.77641 0.5 6.92143 0.5 4.6382L -0.5 4.6382ZM 4.66031 9.77641C 7.50802 9.77641 9.82061 7.47819 9.82061 4.6382L 8.82061 4.6382C 8.82061 6.92143 6.96022 8.77641 4.66031 8.77641L 4.66031 9.77641Z"/>
<path id="path19_fill" d="M 82.5046 25.4614C 82.5046 58.3357 90.52 120 42.0671 120C -6.3858 120 0.314494 58.3357 0.314494 25.4614C 0.314494 -7.413 18.8262 0.951349 42.0671 0.951349C 65.308 0.951349 82.5046 -7.413 82.5046 25.4614Z"/>
<path id="path20_fill" d="M 30.3448 81.4458C 22.8563 113.5 26.2579 144 14.8282 144C 3.3985 144 4.5977 116 0.537404 81.4458C 0.537404 47.9491 -3.06165 0 8.36806 0C 40.9054 2.53744 30.3448 47.9491 30.3448 81.4458Z"/>
<path id="path21_fill" d="M 30.8046 81.4458C 22.069 121.5 26.2579 144 14.8282 144C 3.3985 144 5.0575 117 0.537404 81.4458C 0.537404 47.9491 -3.06165 0 8.36806 0C 40.9054 2.53744 30.8046 47.9491 30.8046 81.4458Z"/>
<path id="path22_fill" d="M 80 7.16909C 80 16.4793 61.6821 34 37.8966 34C 14.1111 34 0 16.4793 0 7.16909C 0 -2.14113 14.1111 0.284711 37.8966 0.284711C 61.6821 0.284711 80 -2.14113 80 7.16909Z"/>
<path id="path23_fill" d="M 0 0L 80 0L 80 11L 0 11L 0 0Z"/>
<path id="path24_fill" d="M 26 20C 26 31.0457 20.1797 30.5 13 30.5C 5.8203 30.5 1.75654e-06 31.0457 1.75654e-06 20C 1.75654e-06 8.9543 5.8203 -3.92634e-06 13 -3.92634e-06C 20.1797 -3.92634e-06 26 8.9543 26 20Z"/>
<path id="path25_fill" d="M 26 20C 26 31.0457 20.1797 29.5 13 29.5C 5.8203 29.5 0 31.0457 0 20C 0 8.9543 5.8203 0 13 0C 20.1797 0 26 8.9543 26 20Z"/>
<path id="path26_fill" d="M 8.72449 11.384C 8.72449 15.25 7.6052 18.384 6.22449 18.384C 4.84377 18.384 3.72449 15.25 3.72449 11.384C 3.72449 7.51801 -1.1337 -8.70313e-06 0.247013 -8.70313e-06C 1.62773 -8.70313e-06 8.72449 7.51801 8.72449 11.384Z"/>
<path id="path27_fill" d="M 0 0L 25 0L 25 11L 0 11L 0 0Z"/>
<path id="path28_stroke" d="M 0 0L 21 0L 21 -1L 0 -1L 0 0Z"/>
<path id="path29_stroke" d="M 0 0L 5 0L 5 -2L 0 -2L 0 0Z"/>
<path id="path30_fill" d="M 0 0L 2 0L 2 2L 0 2L 0 0Z"/>
<path id="path31_stroke" d="M 0 0L 4 0L 4 -1L 0 -1L 0 0Z"/>
<path id="path32_fill" d="M 0 0L 2 0L 2 6L 0 6L 0 0Z"/>
<path id="path33_fill" d="M 8.56836 28L 8.56836 6.67188L 16.0391 6.67188C 18.627 6.67188 20.5898 7.16992 21.9277 8.16602C 23.2656 9.15234 23.9346 10.6025 23.9346 12.5166C 23.9346 13.5615 23.666 14.4844 23.1289 15.2852C 22.5918 16.0762 21.8447 16.6572 20.8877 17.0283C 21.9814 17.3018 22.8408 17.8535 23.4658 18.6836C 24.1006 19.5137 24.418 20.5293 24.418 21.7305C 24.418 23.7812 23.7637 25.334 22.4551 26.3887C 21.1465 27.4434 19.2812 27.9805 16.8594 28L 8.56836 28ZM 12.9629 18.7129L 12.9629 24.4697L 16.7275 24.4697C 17.7627 24.4697 18.5684 24.2256 19.1445 23.7373C 19.7305 23.2393 20.0234 22.5557 20.0234 21.6865C 20.0234 19.7334 19.0127 18.7422 16.9912 18.7129L 12.9629 18.7129ZM 12.9629 15.6074L 16.2148 15.6074C 18.4316 15.5684 19.54 14.6846 19.54 12.9561C 19.54 11.9893 19.2568 11.2959 18.6904 10.876C 18.1338 10.4463 17.25 10.2314 16.0391 10.2314L 12.9629 10.2314L 12.9629 15.6074ZM 27.7285 28L 27.7285 6.67188L 34.291 6.67188C 36.166 6.67188 37.8408 7.09668 39.3154 7.94629C 40.7998 8.78613 41.957 9.98731 42.7871 11.5498C 43.6172 13.1025 44.0322 14.8701 44.0322 16.8525L 44.0322 17.834C 44.0322 19.8164 43.6221 21.5791 42.8018 23.1221C 41.9912 24.665 40.8438 25.8613 39.3594 26.7109C 37.875 27.5605 36.2002 27.9902 34.335 28L 27.7285 28ZM 32.123 10.2314L 32.123 24.4697L 34.2471 24.4697C 35.9658 24.4697 37.2793 23.9082 38.1875 22.7852C 39.0957 21.6621 39.5596 20.0557 39.5791 17.9658L 39.5791 16.8379C 39.5791 14.6699 39.1299 13.0293 38.2314 11.916C 37.333 10.793 36.0195 10.2314 34.291 10.2314L 32.123 10.2314Z"/>
<path id="path34_fill" d="M 124 43.3001C 124 103.886 93.2743 137.044 62 153C 29.0796 139.703 0 103.886 0 43.3001C 0 -17.2855 27.7583 3.40918 62 3.40918C 96.2417 3.40918 124 -17.2855 124 43.3001Z"/>
<path id="path35_fill" d="M 8.52632 96L 0 82.0364L 83.8421 8.72727L 108 0L 95.2105 22.6909L 8.52632 96Z"/>
<path id="path36_fill" d="M 0 0L 10 0L 10 43.5565L 0 43.5565L 0 0Z"/>
<path id="path37_stroke" d="M 0 0L 148.93 0L 148.93 -1L 0 -1L 0 0Z"/>
</defs>
</svg>
