<svg width="372" height="189" viewBox="0 0 372 189" version="1.1" xmlns="http://www.w3.org/2000/svg" xmlns:xlink="http://www.w3.org/1999/xlink">
<title>Group 2</title>
<desc>Created using Figma</desc>
<g id="Canvas" transform="translate(470 84)">
<g id="Group 2" filter="url(#filter0_d)">
<g id="Group">
<g id="Ellipse">
<use xlink:href="#path0_fill" transform="translate(-442 -20.5)" fill="#FFFFFF"/>
</g>
<g id="Ellipse 2">
<use xlink:href="#path1_fill" transform="translate(-441.691 -9)" fill="#FFFFFF"/>
</g>
<g id="Ellipse 2.1">
<use xlink:href="#path1_fill" transform="translate(-190.691 -9)" fill="#FFFFFF"/>
</g>
<g id="Ellipse 3">
<use xlink:href="#path2_fill" transform="translate(-401.691 -51)" fill="#FFFFFF"/>
</g>
<g id="Ellipse 3.1">
<use xlink:href="#path2_fill" transform="translate(-230.691 -51)" fill="#FFFFFF"/>
</g>
<g id="Ellipse 3.2">
<use xlink:href="#path2_fill" transform="translate(-352.691 -75)" fill="#FFFFFF"/>
</g>
<g id="Ellipse 3.3">
<use xlink:href="#path2_fill" transform="translate(-295.691 -75)" fill="#FFFFFF"/>
</g>
</g>
<g id="BulvDrop">
<use xlink:href="#path3_fill" transform="translate(-381 -21)" fill="#7DACE4"/>
</g>
</g>
</g>
<defs>
<filter id="filter0_d" filterUnits="userSpaceOnUse" x="-470" y="-84" width="372" height="189" color-interpolation-filters="sRGB">
<feFlood flood-opacity="0" result="BackgroundImageFix"/>
<feColorMatrix in="SourceAlpha" type="matrix" values="0 0 0 0 0 0 0 0 0 0 0 0 0 0 0 0 0 0 255 0"/>
<feOffset dx="-3" dy="16"/>
<feGaussianBlur stdDeviation="12.5"/>
<feColorMatrix type="matrix" values="0 0 0 0 0 0 0 0 0 0 0 0 0 0 0 0 0 0 0.25 0"/>
<feBlend mode="normal" in2="BackgroundImageFix" result="effect1_dropShadow"/>
<feBlend mode="normal" in="SourceGraphic" in2="effect1_dropShadow" result="shape"/>
</filter>
<path id="path0_fill" d="M 321.809 42C 321.809 92 245.261 84 158 84C 70.739 84 0 84 0 42C 0 27 70.739 0 158 0C 245.261 0 321.809 18.804 321.809 42Z"/>
<path id="path1_fill" d="M 70 31.5C 70 48.897 54.33 63 35 63C 15.67 63 0 48.897 0 31.5C 0 14.103 15.67 0 35 0C 54.33 0 70 14.103 70 31.5Z"/>
<path id="path2_fill" d="M 81 36.5C 81 56.6584 62.8675 73 40.5 73C 18.1325 73 0 56.6584 0 36.5C 0 16.3416 18.1325 0 40.5 0C 62.8675 0 81 16.3416 81 36.5Z"/>
<path id="path3_fill" d="M 11.904 48.48C 10.016 48.48 8.464 48.352 7.248 48.096C 6.032 47.872 5.056 47.536 4.32 47.088C 3.616 46.608 3.12 46.016 2.832 45.312C 2.576 44.608 2.448 43.776 2.448 42.816C 2.448 42.528 2.464 42.128 2.496 41.616C 2.528 41.072 2.576 40.32 2.64 39.36C 2.704 38.4 2.784 37.168 2.88 35.664C 3.008 34.128 3.168 32.208 3.36 29.904C 3.584 27.056 3.76 24.8 3.888 23.136C 4.016 21.472 4.112 20.192 4.176 19.296C 4.24 18.368 4.272 17.728 4.272 17.376C 4.304 16.992 4.32 16.672 4.32 16.416C 4.32 15.904 4.32 15.488 4.32 15.168C 4.352 14.848 4.384 14.608 4.416 14.448C 4.48 14.256 4.56 14.128 4.656 14.064C 4.784 13.968 4.96 13.92 5.184 13.92C 7.072 13.792 8.672 13.696 9.984 13.632C 11.328 13.568 12.496 13.536 13.488 13.536C 15.92 13.536 18 13.744 19.728 14.16C 21.488 14.544 22.912 15.104 24 15.84C 25.088 16.576 25.888 17.488 26.4 18.576C 26.912 19.664 27.168 20.896 27.168 22.272C 27.168 23.04 27.088 23.84 26.928 24.672C 26.768 25.472 26.496 26.24 26.112 26.976C 25.728 27.712 25.2 28.368 24.528 28.944C 23.888 29.488 23.072 29.888 22.08 30.144C 23.936 30.72 25.248 31.68 26.016 33.024C 26.784 34.336 27.168 35.904 27.168 37.728C 27.168 39.2 26.928 40.592 26.448 41.904C 25.968 43.184 25.136 44.32 23.952 45.312C 22.768 46.272 21.2 47.04 19.248 47.616C 17.296 48.192 14.848 48.48 11.904 48.48ZM 14.64 33.6C 14.288 33.6 13.856 33.632 13.344 33.696C 12.832 33.728 12.304 33.792 11.76 33.888L 11.232 41.712C 12.384 42.064 13.424 42.24 14.352 42.24C 15.344 42.24 16.144 42.096 16.752 41.808C 17.36 41.52 17.824 41.168 18.144 40.752C 18.496 40.304 18.72 39.824 18.816 39.312C 18.944 38.768 19.008 38.272 19.008 37.824C 19.008 36.64 18.672 35.648 18 34.848C 17.36 34.016 16.24 33.6 14.64 33.6ZM 12.624 20.4C 12.56 21.232 12.496 22.208 12.432 23.328C 12.4 24.448 12.336 25.664 12.24 26.976C 13.264 27.232 14.176 27.36 14.976 27.36C 15.936 27.36 16.704 27.248 17.28 27.024C 17.856 26.8 18.304 26.512 18.624 26.16C 18.976 25.808 19.2 25.424 19.296 25.008C 19.424 24.592 19.488 24.192 19.488 23.808C 19.488 22.816 19.152 21.968 18.48 21.264C 17.84 20.528 16.72 20.16 15.12 20.16C 14.768 20.16 14.368 20.192 13.92 20.256C 13.504 20.288 13.072 20.336 12.624 20.4ZM 40.1985 25.68C 40.1985 26.352 40.1345 27.296 40.0065 28.512C 39.9105 29.728 39.7985 30.992 39.6705 32.304C 39.5745 33.616 39.4625 34.848 39.3345 36C 39.2385 37.152 39.1905 37.984 39.1905 38.496C 39.1905 39.616 39.4625 40.496 40.0065 41.136C 40.5825 41.744 41.3665 42.048 42.3585 42.048C 43.2225 42.048 43.9425 41.712 44.5185 41.04C 45.1265 40.336 45.6065 39.44 45.9585 38.352C 46.3425 37.232 46.6465 35.968 46.8705 34.56C 47.0945 33.152 47.2545 31.728 47.3505 30.288C 47.4785 28.848 47.5745 27.456 47.6385 26.112C 47.7345 24.736 47.8305 23.552 47.9265 22.56C 47.9585 22.304 48.0545 22.08 48.2145 21.888C 48.3745 21.696 48.6305 21.6 48.9825 21.6L 50.7105 21.6C 51.7025 21.6 52.5025 21.712 53.1105 21.936C 53.7505 22.128 54.2465 22.416 54.5985 22.8C 54.9825 23.184 55.2385 23.664 55.3665 24.24C 55.5265 24.784 55.6065 25.424 55.6065 26.16C 55.6065 26.64 55.5745 27.328 55.5105 28.224C 55.4785 29.088 55.3985 30.304 55.2705 31.872C 55.1425 33.408 54.9825 35.376 54.7905 37.776C 54.6305 40.144 54.4225 43.088 54.1665 46.608C 54.1025 47.28 54.0225 47.68 53.9265 47.808C 53.8625 47.936 53.6065 48 53.1585 48L 51.2865 48C 50.3265 48 49.5265 47.888 48.8865 47.664C 48.2785 47.44 47.7825 47.152 47.3985 46.8C 47.0145 46.448 46.7425 46.032 46.5825 45.552C 46.4225 45.072 46.3265 44.576 46.2945 44.064C 45.8145 44.896 45.2705 45.6 44.6625 46.176C 44.0865 46.752 43.4785 47.216 42.8385 47.568C 42.1985 47.888 41.5425 48.112 40.8705 48.24C 40.1985 48.4 39.5425 48.48 38.9025 48.48C 37.6865 48.48 36.5985 48.288 35.6385 47.904C 34.6785 47.488 33.8625 46.944 33.1905 46.272C 32.5505 45.6 32.0545 44.8 31.7025 43.872C 31.3505 42.944 31.1745 41.952 31.1745 40.896C 31.1745 40.48 31.1905 39.808 31.2225 38.88C 31.2865 37.92 31.3505 36.848 31.4145 35.664C 31.5105 34.48 31.6065 33.232 31.7025 31.92C 31.7985 30.576 31.8785 29.312 31.9425 28.128C 32.0385 26.944 32.1185 25.904 32.1825 25.008C 32.2785 24.112 32.3425 23.472 32.3745 23.088C 32.4385 22.512 32.5665 22.128 32.7585 21.936C 32.9505 21.712 33.2705 21.6 33.7185 21.6L 35.2545 21.6C 36.2465 21.6 37.0625 21.696 37.7025 21.888C 38.3425 22.08 38.8385 22.352 39.1905 22.704C 39.5745 23.056 39.8305 23.488 39.9585 24C 40.1185 24.48 40.1985 25.04 40.1985 25.68ZM 65.3798 48.432C 63.3957 48.432 61.9718 47.904 61.1078 46.848C 60.2438 45.792 59.8118 44.048 59.8118 41.616C 59.8118 41.232 59.8277 40.752 59.8597 40.176C 59.9237 39.6 59.9877 38.864 60.0517 37.968C 60.1478 37.04 60.2597 35.904 60.3877 34.56C 60.5157 33.216 60.6437 31.584 60.7717 29.664C 60.9318 27.744 61.0917 25.488 61.2518 22.896C 61.4438 20.304 61.6358 17.296 61.8278 13.872C 61.8597 13.168 61.9398 12.752 62.0678 12.624C 62.1638 12.528 62.4198 12.48 62.8358 12.48L 64.7078 12.48C 65.6677 12.48 66.4677 12.592 67.1077 12.816C 67.7477 13.04 68.2597 13.344 68.6437 13.728C 69.0277 14.112 69.2998 14.56 69.4597 15.072C 69.6197 15.552 69.6997 16.064 69.6997 16.608C 69.6997 17.248 69.6518 18.176 69.5558 19.392C 69.4918 20.576 69.3958 21.92 69.2678 23.424C 69.1398 24.928 69.0118 26.496 68.8838 28.128C 68.7558 29.76 68.6278 31.328 68.4998 32.832C 68.3718 34.304 68.2597 35.632 68.1637 36.816C 68.0998 38 68.0678 38.896 68.0678 39.504C 68.0678 40.336 68.2118 40.928 68.4998 41.28C 68.8198 41.632 69.1557 41.888 69.5078 42.048C 69.8598 42.176 70.1797 42.272 70.4677 42.336C 70.7877 42.368 70.9477 42.464 70.9477 42.624C 70.9477 43.328 70.8678 44.032 70.7078 44.736C 70.5478 45.408 70.2597 46.032 69.8438 46.608C 69.4278 47.152 68.8518 47.6 68.1158 47.952C 67.4118 48.272 66.4998 48.432 65.3798 48.432ZM 85.0538 41.904C 85.4378 40.56 85.7897 39.232 86.1097 37.92C 86.4617 36.608 86.7978 35.216 87.1178 33.744C 87.4698 32.24 87.8377 30.608 88.2218 28.848C 88.6377 27.056 89.1178 25.024 89.6617 22.752C 89.7578 22.304 89.9017 22.016 90.0938 21.888C 90.2858 21.728 90.7018 21.648 91.3418 21.648C 91.8218 21.648 92.4618 21.664 93.2618 21.696C 94.0618 21.728 94.8457 21.84 95.6137 22.032C 96.3817 22.224 97.0378 22.512 97.5817 22.896C 98.1577 23.28 98.4458 23.808 98.4458 24.48C 98.4458 25.024 98.2538 25.904 97.8698 27.12C 97.4858 28.336 96.9898 29.728 96.3817 31.296C 95.7737 32.832 95.0858 34.448 94.3178 36.144C 93.5817 37.84 92.8617 39.44 92.1577 40.944C 91.4537 42.448 90.7978 43.776 90.1898 44.928C 89.5817 46.048 89.1338 46.832 88.8458 47.28C 88.5898 47.632 88.3657 47.84 88.1737 47.904C 87.9818 47.968 87.6618 48 87.2138 48L 82.9417 48C 82.2698 48 81.7097 47.888 81.2618 47.664C 80.8458 47.408 80.4937 47.088 80.2057 46.704C 79.9177 46.32 79.6778 45.888 79.4857 45.408C 79.2937 44.896 79.1178 44.368 78.9578 43.824C 78.0298 40.624 77.2137 37.888 76.5097 35.616C 75.8377 33.312 75.2618 31.392 74.7818 29.856C 74.3017 28.32 73.9177 27.104 73.6298 26.208C 73.3418 25.28 73.1178 24.576 72.9578 24.096C 72.7978 23.584 72.6857 23.248 72.6218 23.088C 72.5578 22.896 72.5258 22.768 72.5258 22.704C 72.5577 22.48 72.7178 22.24 73.0058 21.984C 73.2938 21.728 73.6618 21.6 74.1098 21.6C 75.5817 21.6 76.8298 21.664 77.8538 21.792C 78.9098 21.888 79.7738 22.08 80.4458 22.368C 81.1497 22.656 81.6778 23.056 82.0298 23.568C 82.4138 24.08 82.6857 24.752 82.8457 25.584C 82.8777 25.808 82.9417 26.256 83.0378 26.928C 83.1338 27.6 83.2297 28.416 83.3257 29.376C 83.4537 30.304 83.5978 31.344 83.7578 32.496C 83.9177 33.616 84.0618 34.752 84.1898 35.904C 84.3498 37.024 84.4938 38.112 84.6218 39.168C 84.7818 40.224 84.9258 41.136 85.0538 41.904ZM 103.088 14.64C 103.12 14.384 103.216 14.208 103.376 14.112C 103.568 13.984 103.744 13.92 103.904 13.92C 106.08 13.92 108.112 13.856 110 13.728C 111.92 13.568 113.424 13.488 114.512 13.488C 117.232 13.488 119.504 13.76 121.328 14.304C 123.184 14.848 124.672 15.696 125.792 16.848C 126.944 18 127.76 19.488 128.24 21.312C 128.72 23.136 128.96 25.328 128.96 27.888C 128.96 30.48 128.688 33.024 128.144 35.52C 127.632 37.984 126.72 40.176 125.408 42.096C 124.096 44.016 122.32 45.568 120.08 46.752C 117.872 47.904 115.072 48.48 111.68 48.48C 110.112 48.48 108.672 48.448 107.36 48.384C 106.08 48.32 104.976 48.128 104.048 47.808C 103.12 47.488 102.4 47.008 101.888 46.368C 101.376 45.728 101.12 44.848 101.12 43.728C 101.12 43.312 101.136 42.688 101.168 41.856C 101.232 41.024 101.296 40.032 101.36 38.88C 101.456 37.728 101.552 36.464 101.648 35.088C 101.776 33.68 101.904 32.208 102.032 30.672C 102.288 27.504 102.48 24.976 102.608 23.088C 102.768 21.2 102.864 19.728 102.896 18.672C 102.96 17.584 102.992 16.768 102.992 16.224C 103.024 15.68 103.056 15.152 103.088 14.64ZM 112.016 40.896C 113.808 40.896 115.232 40.512 116.288 39.744C 117.376 38.976 118.208 38 118.784 36.816C 119.36 35.632 119.744 34.336 119.936 32.928C 120.128 31.52 120.224 30.192 120.224 28.944C 120.224 27.6 120.128 26.432 119.936 25.44C 119.776 24.416 119.472 23.568 119.024 22.896C 118.608 22.224 118.016 21.728 117.248 21.408C 116.48 21.056 115.52 20.88 114.368 20.88C 114.016 20.88 113.568 20.896 113.024 20.928C 112.48 20.96 111.824 21.008 111.056 21.072C 110.992 22.256 110.912 23.664 110.816 25.296C 110.72 26.896 110.608 28.592 110.48 30.384C 110.384 32.144 110.272 33.936 110.144 35.76C 110.016 37.552 109.888 39.216 109.76 40.752C 110.24 40.816 110.672 40.864 111.056 40.896C 111.44 40.896 111.76 40.896 112.016 40.896ZM 148.113 33.072C 147.921 33.072 147.697 33.072 147.441 33.072C 147.217 33.04 146.993 33.008 146.769 32.976C 146.545 32.912 146.353 32.848 146.193 32.784C 146.033 32.688 145.953 32.576 145.953 32.448C 145.953 32.032 145.969 31.648 146.001 31.296C 146.033 30.944 146.049 30.576 146.049 30.192C 146.049 29.488 145.953 28.912 145.761 28.464C 145.569 28.016 145.185 27.792 144.609 27.792C 143.713 27.792 142.961 28.384 142.353 29.568C 141.777 30.72 141.409 32.464 141.249 34.8C 141.185 35.824 141.089 36.992 140.961 38.304C 140.865 39.584 140.769 40.832 140.673 42.048C 140.577 43.232 140.497 44.288 140.433 45.216C 140.369 46.144 140.337 46.752 140.337 47.04C 140.337 47.36 140.225 47.6 140.001 47.76C 139.777 47.92 139.537 48 139.281 48L 137.553 48C 136.561 48 135.745 47.904 135.105 47.712C 134.497 47.488 134.001 47.184 133.617 46.8C 133.265 46.416 133.009 45.952 132.849 45.408C 132.721 44.832 132.657 44.176 132.657 43.44C 132.657 42.96 132.673 42.288 132.705 41.424C 132.769 40.528 132.865 39.312 132.993 37.776C 133.121 36.208 133.265 34.24 133.425 31.872C 133.617 29.472 133.841 26.512 134.097 22.992C 134.161 22.064 134.497 21.6 135.105 21.6L 136.977 21.6C 137.873 21.6 138.625 21.696 139.233 21.888C 139.841 22.08 140.337 22.352 140.721 22.704C 141.105 23.024 141.377 23.408 141.537 23.856C 141.729 24.304 141.857 24.768 141.921 25.248C 142.305 24.512 142.753 23.888 143.265 23.376C 143.809 22.832 144.369 22.4 144.945 22.08C 145.521 21.728 146.113 21.488 146.721 21.36C 147.329 21.2 147.889 21.12 148.401 21.12C 149.009 21.12 149.617 21.232 150.225 21.456C 150.865 21.68 151.441 22.016 151.953 22.464C 152.465 22.912 152.865 23.488 153.153 24.192C 153.473 24.896 153.633 25.728 153.633 26.688C 153.633 27.552 153.505 28.368 153.249 29.136C 152.993 29.904 152.625 30.592 152.145 31.2C 151.665 31.776 151.073 32.24 150.369 32.592C 149.697 32.912 148.945 33.072 148.113 33.072ZM 166.329 48.48C 164.121 48.48 162.281 48.176 160.809 47.568C 159.369 46.928 158.217 46.064 157.353 44.976C 156.489 43.888 155.881 42.624 155.529 41.184C 155.177 39.712 155.001 38.144 155.001 36.48C 155.001 34.56 155.225 32.688 155.673 30.864C 156.153 29.008 156.953 27.36 158.073 25.92C 159.193 24.48 160.665 23.328 162.489 22.464C 164.345 21.568 166.649 21.12 169.401 21.12C 173.433 21.12 176.313 22.112 178.041 24.096C 179.801 26.048 180.681 28.8 180.681 32.352C 180.681 33.344 180.601 34.448 180.441 35.664C 180.313 36.848 180.041 38.032 179.625 39.216C 179.241 40.4 178.697 41.552 177.993 42.672C 177.321 43.792 176.457 44.784 175.401 45.648C 174.345 46.512 173.065 47.2 171.561 47.712C 170.089 48.224 168.345 48.48 166.329 48.48ZM 168.585 27.504C 167.369 27.504 166.393 27.824 165.657 28.464C 164.953 29.072 164.409 29.824 164.025 30.72C 163.673 31.584 163.433 32.512 163.305 33.504C 163.209 34.464 163.161 35.28 163.161 35.952C 163.161 38.064 163.497 39.616 164.169 40.608C 164.841 41.6 165.801 42.096 167.049 42.096C 168.169 42.096 169.081 41.744 169.785 41.04C 170.521 40.336 171.081 39.488 171.465 38.496C 171.881 37.504 172.153 36.464 172.281 35.376C 172.441 34.288 172.521 33.376 172.521 32.64C 172.521 31.04 172.217 29.792 171.609 28.896C 171.033 27.968 170.025 27.504 168.585 27.504ZM 200.873 21.12C 203.881 21.12 206.137 22.048 207.641 23.904C 209.177 25.76 209.945 28.688 209.945 32.688C 209.945 35.184 209.657 37.408 209.081 39.36C 208.505 41.312 207.705 42.976 206.681 44.352C 205.657 45.696 204.457 46.72 203.081 47.424C 201.705 48.128 200.217 48.48 198.617 48.48C 196.921 48.48 195.593 48.112 194.633 47.376C 193.673 46.64 192.921 45.6 192.377 44.256C 192.281 45.408 192.201 46.288 192.137 46.896C 192.073 47.504 192.025 47.984 191.993 48.336C 191.961 48.72 191.929 49.056 191.897 49.344C 191.897 49.632 191.865 50.016 191.801 50.496C 191.769 50.976 191.721 51.632 191.657 52.464C 191.593 53.296 191.497 54.448 191.369 55.92C 191.337 56.304 191.257 56.56 191.129 56.688C 191.001 56.816 190.729 56.88 190.313 56.88L 188.585 56.88C 187.593 56.88 186.777 56.768 186.137 56.544C 185.529 56.352 185.033 56.064 184.649 55.68C 184.297 55.296 184.041 54.816 183.881 54.24C 183.753 53.696 183.689 53.056 183.689 52.32C 183.689 52 183.737 51.136 183.833 49.728C 183.929 48.32 184.041 46.64 184.169 44.688C 184.329 42.704 184.489 40.576 184.649 38.304C 184.841 36.032 185.017 33.872 185.177 31.824C 185.337 29.744 185.465 27.904 185.561 26.304C 185.689 24.704 185.785 23.6 185.849 22.992C 185.881 22.288 185.961 21.872 186.089 21.744C 186.185 21.648 186.441 21.6 186.857 21.6L 188.729 21.6C 190.457 21.6 191.705 21.968 192.473 22.704C 193.273 23.408 193.673 24.256 193.673 25.248C 194.409 23.776 195.353 22.72 196.505 22.08C 197.689 21.44 199.145 21.12 200.873 21.12ZM 197.369 27.504C 195.737 27.504 194.537 28.208 193.769 29.616C 193.001 31.024 192.617 32.944 192.617 35.376C 192.617 36.208 192.665 37.024 192.761 37.824C 192.889 38.624 193.097 39.344 193.385 39.984C 193.673 40.624 194.057 41.136 194.537 41.52C 195.049 41.904 195.689 42.096 196.457 42.096C 197.833 42.096 198.985 41.424 199.913 40.08C 200.841 38.736 201.305 36.624 201.305 33.744C 201.305 32.944 201.241 32.176 201.113 31.44C 201.017 30.672 200.825 30 200.537 29.424C 200.249 28.848 199.849 28.384 199.337 28.032C 198.825 27.68 198.169 27.504 197.369 27.504Z"/>
</defs>
</svg>
