<svg width="307" height="564" viewBox="0 0 307 564" version="1.1" xmlns="http://www.w3.org/2000/svg" xmlns:xlink="http://www.w3.org/1999/xlink">
<title>Group 4</title>
<desc>Created using Figma</desc>
<g id="Canvas" transform="translate(427 -431)">
<g id="Group 4">
<g id="&#208;&#162;&#208;&#181;&#208;&#187;&#208;&#181;&#209;&#132;&#208;&#190;&#208;&#189;">
<g id="Rectangle">
<use xlink:href="#path0_fill" transform="translate(-423 431)" fill="#2B2B2B"/>
</g>
<g id="Rectangle" filter="url(#filter0_d)">
<use xlink:href="#path1_fill" transform="translate(-423 437)" fill="#2B2B2B"/>
</g>
</g>
<g id="Rectangle">
<use xlink:href="#path2_fill" transform="translate(-418 474)" fill="#F0F0F0"/>
</g>
<g id="Group 3">
<g id="Group">
<g id="Rectangle 3">
<use xlink:href="#path3_fill" transform="translate(-271 685)" fill="#7DACE4"/>
</g>
<g id="&#208;&#161;&#208;&#186;&#208;&#176;&#209;&#135;&#208;&#176;&#209;&#130;&#209;&#140;">
<use xlink:href="#path4_fill" transform="translate(-266 685)" fill="#FFFFFF"/>
</g>
</g>
<g id="Group">
<g id="Rectangle 3">
<use xlink:href="#path5_fill" transform="translate(-183 685)" fill="#EB5757"/>
</g>
</g>
<g id="Rectangle 2">
<use xlink:href="#path6_fill" transform="translate(-308 453)" fill="#4F4F4F"/>
</g>
<g id="Ellipse">
<use xlink:href="#path7_fill" transform="translate(-290 933)" fill="#4F4F4F"/>
</g>
<g id="Ellipse 2">
<use xlink:href="#path8_fill" transform="translate(-177 451)" fill="#4F4F4F"/>
</g>
<g id="logo">
<g id="Canvas">
<g id="Group 2" filter="url(#filter1_d)">
<g id="Group">
<g id="Ellipse">
<g id="Vector">
<use xlink:href="#path9_fill" transform="translate(-379 529.688)" fill="#FFFFFF"/>
</g>
</g>
<g id="Ellipse 2">
<g id="Vector">
<use xlink:href="#path10_fill" transform="translate(-378.797 537.218)" fill="#FFFFFF"/>
</g>
</g>
<g id="Ellipse 2.1">
<g id="Vector">
<use xlink:href="#path10_fill" transform="translate(-214.225 537.218)" fill="#FFFFFF"/>
</g>
</g>
<g id="Ellipse 3">
<g id="Vector">
<use xlink:href="#path11_fill" transform="translate(-352.571 509.716)" fill="#FFFFFF"/>
</g>
</g>
<g id="Ellipse 3.1">
<g id="Vector">
<use xlink:href="#path11_fill" transform="translate(-240.451 509.716)" fill="#FFFFFF"/>
</g>
</g>
<g id="Ellipse 3.2">
<g id="Vector">
<use xlink:href="#path11_fill" transform="translate(-320.443 494)" fill="#FFFFFF"/>
</g>
</g>
<g id="Ellipse 3.3">
<g id="Vector">
<use xlink:href="#path11_fill" transform="translate(-283.07 494)" fill="#FFFFFF"/>
</g>
</g>
</g>
<g id="BulvDrop">
<g id="Vector">
<use xlink:href="#path12_fill" transform="translate(-337.399 537.532)" fill="#7DACE4"/>
</g>
</g>
</g>
</g>
</g>
<g id="My.zip 4MB.">
<use xlink:href="#path13_fill" transform="translate(-397 685)"/>
</g>
<g id="Group 2">
<g id="Line">
<use xlink:href="#path14_stroke" transform="matrix(0.707107 0.707107 -0.707107 0.707107 -180 689)" fill="#FFFFFF"/>
</g>
<g id="Line">
<use xlink:href="#path14_stroke" transform="matrix(0.707107 -0.707107 0.707107 0.707107 -179 707)" fill="#FFFFFF"/>
</g>
</g>
<g id="Group">
<g id="Rectangle 3">
<use xlink:href="#path3_fill" transform="translate(-271 742)" fill="#7DACE4"/>
</g>
<g id="&#208;&#161;&#208;&#186;&#208;&#176;&#209;&#135;&#208;&#176;&#209;&#130;&#209;&#140;">
<use xlink:href="#path15_fill" transform="translate(-266 742)" fill="#FFFFFF"/>
</g>
</g>
<g id="Group">
<g id="Rectangle 3">
<use xlink:href="#path16_fill" transform="translate(-323 872)" fill="#27AE60"/>
</g>
<g id="&#208;&#151;&#208;&#176;&#208;&#179;&#209;&#128;&#209;&#131;&#208;&#183;&#208;&#184;&#209;&#130;&#209;&#140;">
<use xlink:href="#path17_fill" transform="translate(-313 872)" fill="#FFFFFF"/>
</g>
</g>
<g id="Group">
<g id="Rectangle 3">
<use xlink:href="#path18_fill" transform="translate(-271 775)" fill="#BDBDBD"/>
</g>
<g id="&#208;&#158;&#209;&#130;&#208;&#186;&#209;&#128;&#209;&#139;&#209;&#130;&#209;&#140;">
<use xlink:href="#path19_fill" transform="translate(-269 775)" fill="#FFFFFF"/>
</g>
</g>
<g id="Group">
<g id="Rectangle 3">
<use xlink:href="#path5_fill" transform="translate(-183 742)" fill="#EB5757"/>
</g>
</g>
<g id="Cat.jpg 2MB.">
<use xlink:href="#path20_fill" transform="translate(-397 742)"/>
</g>
<g id="Group 2.1">
<g id="Line">
<use xlink:href="#path14_stroke" transform="matrix(0.707107 0.707107 -0.707107 0.707107 -180 746)" fill="#FFFFFF"/>
</g>
<g id="Line">
<use xlink:href="#path14_stroke" transform="matrix(0.707107 -0.707107 0.707107 0.707107 -179 764)" fill="#FFFFFF"/>
</g>
</g>
<g id="Line">
<use xlink:href="#path21_stroke" transform="translate(-418 725)" fill="#CCCCCC"/>
</g>
<g id="Line">
<use xlink:href="#path21_stroke" transform="translate(-419 812)" fill="#CCCCCC"/>
</g>
</g>
</g>
</g>
<defs>
<filter id="filter0_d" filterUnits="userSpaceOnUse" x="-427" y="437" width="307" height="558" color-interpolation-filters="sRGB">
<feFlood flood-opacity="0" result="BackgroundImageFix"/>
<feColorMatrix in="SourceAlpha" type="matrix" values="0 0 0 0 0 0 0 0 0 0 0 0 0 0 0 0 0 0 255 0"/>
<feOffset dx="0" dy="12"/>
<feGaussianBlur stdDeviation="2"/>
<feColorMatrix type="matrix" values="0 0 0 0 0 0 0 0 0 0 0 0 0 0 0 0 0 0 0.25 0"/>
<feBlend mode="normal" in2="BackgroundImageFix" result="effect1_dropShadow"/>
<feBlend mode="normal" in="SourceGraphic" in2="effect1_dropShadow" result="shape"/>
</filter>
<filter id="filter1_d" filterUnits="userSpaceOnUse" x="-407" y="485" width="261" height="141" color-interpolation-filters="sRGB">
<feFlood flood-opacity="0" result="BackgroundImageFix"/>
<feColorMatrix in="SourceAlpha" type="matrix" values="0 0 0 0 0 0 0 0 0 0 0 0 0 0 0 0 0 0 255 0"/>
<feOffset dx="-3" dy="16"/>
<feGaussianBlur stdDeviation="12.5"/>
<feColorMatrix type="matrix" values="0 0 0 0 0 0 0 0 0 0 0 0 0 0 0 0 0 0 0.25 0"/>
<feBlend mode="normal" in2="BackgroundImageFix" result="effect1_dropShadow"/>
<feBlend mode="normal" in="SourceGraphic" in2="effect1_dropShadow" result="shape"/>
</filter>
<path id="path0_fill" d="M 0 14C 0 6.26801 6.26801 0 14 0L 285 0C 292.732 0 299 6.26801 299 14L 299 540C 299 547.732 292.732 554 285 554L 14 554C 6.26801 554 0 547.732 0 540L 0 14Z"/>
<path id="path1_fill" d="M 0 14C 0 6.26801 6.26801 0 14 0L 285 0C 292.732 0 299 6.26801 299 14L 299 528C 299 535.732 292.732 542 285 542L 14 542C 6.26801 542 0 535.732 0 528L 0 14Z"/>
<path id="path2_fill" d="M 0 0L 290 0L 290 440L 0 440L 0 0Z"/>
<path id="path3_fill" d="M 0 5C 0 2.23858 2.23858 0 5 0L 72 0C 74.7614 0 77 2.23858 77 5L 77 20C 77 22.7614 74.7614 25 72 25L 5 25C 2.23858 25 0 22.7614 0 20L 0 5Z"/>
<path id="path4_fill" d="M 6.066 17.18C 2.79 17.18 1.152 16.124 1.152 14.012L 1.152 8.468C 1.152 6.236 2.79 5.12 6.066 5.12C 7.182 5.12 8.25 5.234 9.27 5.462L 9.27 6.758C 8.118 6.47 7.062 6.326 6.102 6.326C 5.634 6.326 5.226 6.356 4.878 6.416C 4.53 6.464 4.194 6.554 3.87 6.686C 3.174 6.986 2.826 7.574 2.826 8.45L 2.826 13.922C 2.826 15.266 3.942 15.938 6.174 15.938C 7.134 15.938 8.19 15.794 9.342 15.506L 9.342 16.838C 8.322 17.066 7.23 17.18 6.066 17.18ZM 11.5462 8.288L 13.1662 8.288L 13.1662 12.05C 13.3462 12.05 13.4902 12.014 13.5982 11.942C 13.7182 11.858 13.8622 11.732 14.0302 11.564L 17.0542 8.288L 19.0342 8.288L 15.0742 12.41C 15.2302 12.446 15.4522 12.608 15.7402 12.896C 16.0402 13.184 16.4782 13.652 17.0542 14.3L 19.4842 17L 17.4862 17L 15.1102 14.3C 14.7862 13.928 14.4682 13.634 14.1562 13.418C 13.9162 13.262 13.7482 13.172 13.6522 13.148C 13.5562 13.112 13.4602 13.094 13.3642 13.094C 13.2682 13.094 13.2022 13.094 13.1662 13.094L 13.1662 17L 11.5462 17L 11.5462 8.288ZM 23.2813 17.18C 22.4533 17.18 21.8113 17.102 21.3553 16.946C 20.9113 16.79 20.5873 16.514 20.3833 16.118C 20.1913 15.722 20.0953 15.152 20.0953 14.408C 20.0953 13.748 20.1853 13.238 20.3653 12.878C 20.5573 12.506 20.8753 12.242 21.3193 12.086C 21.7753 11.93 22.4173 11.852 23.2453 11.852L 25.8553 11.852L 25.8553 10.466C 25.8553 10.142 25.7893 9.896 25.6573 9.728C 25.5373 9.548 25.3273 9.422 25.0273 9.35C 24.7393 9.278 24.3133 9.242 23.7493 9.242C 22.8493 9.242 21.8533 9.314 20.7613 9.458L 20.7613 8.27C 21.9493 8.162 23.0233 8.108 23.9833 8.108C 24.9913 8.108 25.7353 8.186 26.2153 8.342C 26.6953 8.486 27.0253 8.744 27.2053 9.116C 27.3853 9.488 27.4753 10.064 27.4753 10.844L 27.4753 17L 25.9093 17L 25.9093 16.172C 25.7773 16.844 24.9013 17.18 23.2813 17.18ZM 23.5513 16.118C 24.1393 16.118 24.6373 16.076 25.0453 15.992C 25.5853 15.884 25.8553 15.632 25.8553 15.236L 25.8553 12.86L 23.3533 12.86C 22.8373 12.86 22.4653 12.902 22.2373 12.986C 22.0093 13.058 21.8593 13.202 21.7873 13.418C 21.7153 13.634 21.6793 13.982 21.6793 14.462C 21.6793 14.894 21.7213 15.23 21.8053 15.47C 21.8893 15.698 22.0393 15.866 22.2553 15.974C 22.4713 16.07 22.7953 16.118 23.2273 16.118L 23.5513 16.118ZM 36.1709 13.076C 36.0149 13.904 35.0609 14.318 33.3089 14.318C 32.1929 14.318 31.4069 14.12 30.9509 13.724C 30.5069 13.316 30.2849 12.68 30.2849 11.816L 30.2849 8.288L 31.9049 8.288L 31.9049 11.708C 31.9049 12.26 32.0489 12.638 32.3369 12.842C 32.6249 13.046 33.1049 13.148 33.7769 13.148C 34.4369 13.148 34.9349 13.106 35.2709 13.022C 35.6189 12.926 35.8529 12.776 35.9729 12.572C 36.1049 12.368 36.1709 12.08 36.1709 11.708L 36.1709 8.288L 37.7909 8.288L 37.7909 17L 36.1709 17L 36.1709 13.076ZM 43.2852 17.18C 42.4572 17.18 41.8152 17.102 41.3592 16.946C 40.9152 16.79 40.5912 16.514 40.3872 16.118C 40.1952 15.722 40.0992 15.152 40.0992 14.408C 40.0992 13.748 40.1892 13.238 40.3692 12.878C 40.5612 12.506 40.8792 12.242 41.3232 12.086C 41.7792 11.93 42.4212 11.852 43.2492 11.852L 45.8592 11.852L 45.8592 10.466C 45.8592 10.142 45.7932 9.896 45.6612 9.728C 45.5412 9.548 45.3312 9.422 45.0312 9.35C 44.7432 9.278 44.3172 9.242 43.7532 9.242C 42.8532 9.242 41.8572 9.314 40.7652 9.458L 40.7652 8.27C 41.9532 8.162 43.0272 8.108 43.9872 8.108C 44.9952 8.108 45.7392 8.186 46.2192 8.342C 46.6992 8.486 47.0292 8.744 47.2092 9.116C 47.3892 9.488 47.4792 10.064 47.4792 10.844L 47.4792 17L 45.9132 17L 45.9132 16.172C 45.7812 16.844 44.9052 17.18 43.2852 17.18ZM 43.5552 16.118C 44.1432 16.118 44.6412 16.076 45.0492 15.992C 45.5892 15.884 45.8592 15.632 45.8592 15.236L 45.8592 12.86L 43.3572 12.86C 42.8412 12.86 42.4692 12.902 42.2412 12.986C 42.0132 13.058 41.8632 13.202 41.7912 13.418C 41.7192 13.634 41.6832 13.982 41.6832 14.462C 41.6832 14.894 41.7252 15.23 41.8092 15.47C 41.8932 15.698 42.0432 15.866 42.2592 15.974C 42.4752 16.07 42.7992 16.118 43.2312 16.118L 43.5552 16.118ZM 52.4848 9.476L 49.4248 9.476L 49.4248 8.288L 57.1468 8.288L 57.1468 9.476L 54.1048 9.476L 54.1048 17L 52.4848 17L 52.4848 9.476ZM 59.0954 8.288L 60.7154 8.288L 60.7154 11.438L 62.9474 11.438C 63.6914 11.438 64.2794 11.492 64.7114 11.6C 65.1554 11.708 65.4794 11.9 65.6834 12.176C 65.8874 12.44 65.9894 12.818 65.9894 13.31L 65.9894 15.11C 65.9894 16.37 64.9274 17 62.8034 17L 59.0954 17L 59.0954 8.288ZM 62.6954 15.956C 63.0434 15.956 63.4034 15.908 63.7754 15.812C 64.1954 15.704 64.4054 15.398 64.4054 14.894L 64.4054 13.796C 64.4054 13.448 64.3574 13.184 64.2614 13.004C 64.1774 12.824 64.0154 12.698 63.7754 12.626C 63.5474 12.554 63.1994 12.518 62.7314 12.518L 60.6974 12.518L 60.6974 15.956L 62.6954 15.956Z"/>
<path id="path5_fill" d="M 0 5C 0 2.23858 2.23858 0 5 0L 20 0C 22.7614 0 25 2.23858 25 5L 25 20C 25 22.7614 22.7614 25 20 25L 5 25C 2.23858 25 0 22.7614 0 20L 0 5Z"/>
<path id="path6_fill" d="M 0 3.5C 0 1.567 1.567 0 3.5 0L 66.5 0C 68.433 0 70 1.567 70 3.5L 70 3.5C 70 5.433 68.433 7 66.5 7L 3.5 7C 1.567 7 0 5.433 0 3.5L 0 3.5Z"/>
<path id="path7_fill" d="M 33 16.5C 33 25.6127 25.6127 33 16.5 33C 7.3873 33 0 25.6127 0 16.5C 0 7.3873 7.3873 0 16.5 0C 25.6127 0 33 7.3873 33 16.5Z"/>
<path id="path8_fill" d="M 9 4.5C 9 6.98528 6.98528 9 4.5 9C 2.01472 9 0 6.98528 0 4.5C 0 2.01472 2.01472 0 4.5 0C 6.98528 0 9 2.01472 9 4.5Z"/>
<path id="path9_fill" d="M 211 27.5023C 211 60.2432 160.81 55.0046 103.596 55.0046C 46.3813 55.0046 0 55.0046 0 27.5023C 0 17.6801 46.3813 0 103.596 0C 160.81 0 211 12.3132 211 27.5023Z"/>
<path id="path10_fill" d="M 45.8968 20.6267C 45.8968 32.0186 35.6225 41.2535 22.9484 41.2535C 10.2743 41.2535 0 32.0186 0 20.6267C 0 9.23488 10.2743 0 22.9484 0C 35.6225 0 45.8968 9.23488 45.8968 20.6267Z"/>
<path id="path11_fill" d="M 53.1091 23.9008C 53.1091 37.1009 41.2202 47.8016 26.5546 47.8016C 11.8889 47.8016 0 37.1009 0 23.9008C 0 10.7008 11.8889 0 26.5546 0C 41.2202 0 53.1091 10.7008 53.1091 23.9008Z"/>
<path id="path12_fill" d="M 6.2 23.5734C 4.9621 23.5734 3.9445 23.4896 3.14721 23.322C 2.34992 23.1753 1.70998 22.9553 1.22741 22.6619C 0.765821 22.3476 0.440609 21.9599 0.251777 21.4989C 0.0839256 21.038 -3.00141e-08 20.4932 -3.00141e-08 19.8645C -3.00141e-08 19.6759 0.0104907 19.414 0.0314721 19.0787C 0.0524535 18.7225 0.0839256 18.2301 0.125888 17.6015C 0.167851 16.9729 0.220305 16.1661 0.283249 15.1813C 0.367174 14.1755 0.472081 12.9182 0.59797 11.4095C 0.744839 9.54461 0.860237 8.06734 0.944163 6.97773C 1.02809 5.88811 1.09103 5.04995 1.133 4.46323C 1.17496 3.85556 1.19594 3.43648 1.19594 3.20598C 1.21692 2.95453 1.22741 2.74499 1.22741 2.57736C 1.22741 2.24209 1.22741 1.96969 1.22741 1.76015C 1.24839 1.55061 1.26937 1.39345 1.29036 1.28868C 1.33232 1.16295 1.38477 1.07914 1.44772 1.03723C 1.53164 0.974368 1.64704 0.942936 1.79391 0.942936C 3.03181 0.85912 4.08088 0.796257 4.94112 0.754349C 5.82234 0.712441 6.58816 0.691487 7.23858 0.691487C 8.83316 0.691487 10.197 0.827688 11.33 1.10009C 12.4839 1.35154 13.4176 1.71824 14.131 2.20018C 14.8443 2.68213 15.3689 3.27932 15.7046 3.99176C 16.0403 4.7042 16.2081 5.51094 16.2081 6.41197C 16.2081 6.91487 16.1557 7.43872 16.0508 7.98353C 15.9459 8.50738 15.7675 9.01028 15.5157 9.49223C 15.264 9.97417 14.9178 10.4037 14.4772 10.7809C 14.0575 11.1371 13.5225 11.3991 12.8721 11.5667C 14.089 11.9439 14.9492 12.5725 15.4528 13.4526C 15.9563 14.3117 16.2081 15.3384 16.2081 16.5328C 16.2081 17.4967 16.0508 18.4082 15.736 19.2673C 15.4213 20.1055 14.8758 20.8494 14.0995 21.4989C 13.3232 22.1276 12.2951 22.6305 11.0152 23.0076C 9.73536 23.3848 8.13029 23.5734 6.2 23.5734ZM 7.99391 13.8297C 7.76311 13.8297 7.47987 13.8507 7.14416 13.8926C 6.80846 13.9135 6.46227 13.9555 6.10558 14.0183L 5.75939 19.1416C 6.51472 19.3721 7.19662 19.4874 7.80508 19.4874C 8.4555 19.4874 8.98004 19.3931 9.37868 19.2045C 9.77733 19.0159 10.0816 18.7854 10.2914 18.513C 10.5222 18.2196 10.669 17.9053 10.732 17.57C 10.8159 17.2138 10.8579 16.889 10.8579 16.5957C 10.8579 15.8204 10.6376 15.1708 10.197 14.6469C 9.77733 14.1021 9.04298 13.8297 7.99391 13.8297ZM 6.67208 5.18615C 6.63012 5.73096 6.58816 6.37006 6.54619 7.10345C 6.52521 7.83685 6.48325 8.63311 6.4203 9.49223C 7.09171 9.65986 7.68968 9.74368 8.21421 9.74368C 8.84366 9.74368 9.34721 9.67034 9.72487 9.52366C 10.1025 9.37698 10.3963 9.18839 10.6061 8.95789C 10.8369 8.7274 10.9838 8.47595 11.0467 8.20355C 11.1306 7.93114 11.1726 7.66922 11.1726 7.41777C 11.1726 6.76819 10.9523 6.2129 10.5117 5.75191C 10.092 5.26997 9.3577 5.02899 8.30863 5.02899C 8.07783 5.02899 7.81557 5.04995 7.52183 5.09186C 7.24907 5.11281 6.96582 5.14424 6.67208 5.18615ZM 24.7518 8.64358C 24.7518 9.08362 24.7098 9.70177 24.6259 10.498C 24.563 11.2943 24.4895 12.122 24.4056 12.9811C 24.3427 13.8402 24.2692 14.6469 24.1853 15.4013C 24.1224 16.1556 24.0909 16.7004 24.0909 17.0357C 24.0909 17.7691 24.2692 18.3454 24.6259 18.7644C 25.0036 19.1626 25.5176 19.3616 26.1681 19.3616C 26.7346 19.3616 27.2066 19.1416 27.5843 18.7016C 27.9829 18.2406 28.2977 17.6539 28.5285 16.9414C 28.7802 16.208 28.9796 15.3803 29.1264 14.4584C 29.2733 13.5364 29.3782 12.6039 29.4411 11.661C 29.5251 10.718 29.588 9.80654 29.63 8.92646C 29.6929 8.02544 29.7559 7.25013 29.8188 6.60055C 29.8398 6.43292 29.9027 6.28624 30.0076 6.16052C 30.1126 6.03479 30.2804 5.97193 30.5112 5.97193L 31.6442 5.97193C 32.2946 5.97193 32.8192 6.04527 33.2178 6.19195C 33.6374 6.31767 33.9626 6.50626 34.1934 6.75771C 34.4452 7.00916 34.6131 7.32347 34.697 7.70065C 34.8019 8.05687 34.8543 8.47595 34.8543 8.95789C 34.8543 9.27221 34.8334 9.72272 34.7914 10.3094C 34.7704 10.8752 34.718 11.6715 34.634 12.6982C 34.5501 13.704 34.4452 14.9927 34.3193 16.5642C 34.2144 18.1149 34.078 20.0426 33.9102 22.3476C 33.8682 22.7876 33.8158 23.0496 33.7528 23.1334C 33.7109 23.2172 33.543 23.2591 33.2493 23.2591L 32.0219 23.2591C 31.3924 23.2591 30.8679 23.1858 30.4483 23.0391C 30.0496 22.8924 29.7244 22.7038 29.4726 22.4733C 29.2208 22.2428 29.0425 21.9704 28.9376 21.6561C 28.8327 21.3418 28.7697 21.017 28.7488 20.6817C 28.434 21.2265 28.0774 21.6875 27.6787 22.0647C 27.301 22.4419 26.9024 22.7457 26.4828 22.9762C 26.0631 23.1858 25.633 23.3324 25.1924 23.4163C 24.7518 23.521 24.3217 23.5734 23.9021 23.5734C 23.1048 23.5734 22.3914 23.4477 21.762 23.1962C 21.1325 22.9238 20.5975 22.5676 20.1569 22.1276C 19.7373 21.6875 19.412 21.1637 19.1813 20.556C 18.9505 19.9483 18.8351 19.2988 18.8351 18.6073C 18.8351 18.3349 18.8455 17.8948 18.8665 17.2872C 18.9085 16.6585 18.9505 15.9566 18.9924 15.1813C 19.0554 14.406 19.1183 13.5888 19.1813 12.7296C 19.2442 11.8496 19.2966 11.0219 19.3386 10.2466C 19.4016 9.47127 19.454 8.79026 19.496 8.20355C 19.5589 7.61683 19.6009 7.19775 19.6219 6.9463C 19.6638 6.56912 19.7477 6.31767 19.8736 6.19195C 19.9995 6.04527 20.2093 5.97193 20.5031 5.97193L 21.5102 5.97193C 22.1606 5.97193 22.6956 6.03479 23.1153 6.16052C 23.5349 6.28624 23.8601 6.46435 24.0909 6.69485C 24.3427 6.92534 24.5105 7.20822 24.5944 7.54349C 24.6994 7.8578 24.7518 8.2245 24.7518 8.64358ZM 41.2624 23.542C 39.9615 23.542 39.0279 23.1962 38.4614 22.5047C 37.8949 21.8133 37.6116 20.6713 37.6116 19.0787C 37.6116 18.8273 37.6221 18.513 37.643 18.1358C 37.685 17.7586 37.727 17.2767 37.7689 16.69C 37.8319 16.0823 37.9053 15.3384 37.9892 14.4584C 38.0732 13.5783 38.1571 12.5096 38.241 11.2524C 38.346 9.99512 38.4508 8.51786 38.5558 6.82057C 38.6817 5.12329 38.8076 3.1536 38.9335 0.911505C 38.9544 0.450514 39.0069 0.17811 39.0908 0.0942934C 39.1538 0.0314309 39.3216 -2.99751e-07 39.5944 -2.99751e-07L 40.8218 -2.99751e-07C 41.4512 -2.99751e-07 41.9757 0.0733395 42.3953 0.220018C 42.8149 0.366697 43.1507 0.565762 43.4024 0.817211C 43.6542 1.06866 43.8326 1.36202 43.9375 1.69729C 44.0424 2.0116 44.0948 2.34686 44.0948 2.70308C 44.0948 3.12217 44.0634 3.72984 44.0005 4.52609C 43.9585 5.3014 43.8956 6.18147 43.8116 7.16632C 43.7277 8.15116 43.6438 9.17791 43.5599 10.2466C 43.4759 11.3152 43.392 12.342 43.3081 13.3268C 43.2242 14.2907 43.1507 15.1603 43.0877 15.9356C 43.0458 16.7109 43.0248 17.2976 43.0248 17.6958C 43.0248 18.2406 43.1192 18.6282 43.3081 18.8587C 43.5179 19.0892 43.7381 19.2569 43.969 19.3616C 44.1998 19.4454 44.4095 19.5083 44.5984 19.5502C 44.8082 19.5712 44.9131 19.634 44.9131 19.7388C 44.9131 20.1998 44.8607 20.6608 44.7558 21.1218C 44.6509 21.5618 44.462 21.9704 44.1893 22.3476C 43.9165 22.7038 43.5389 22.9972 43.0563 23.2277C 42.5947 23.4372 41.9967 23.542 41.2624 23.542ZM 54.162 19.2673C 54.4138 18.3873 54.6445 17.5177 54.8543 16.6585C 55.0851 15.7994 55.3055 14.8879 55.5153 13.924C 55.7461 12.9392 55.9873 11.8705 56.2392 10.718C 56.5119 9.54461 56.8266 8.21402 57.1833 6.72628C 57.2463 6.43292 57.3406 6.24433 57.4666 6.16052C 57.5925 6.05575 57.8652 6.00336 58.2849 6.00336C 58.5996 6.00336 59.0192 6.01384 59.5437 6.03479C 60.0683 6.05575 60.5823 6.12909 61.0858 6.25481C 61.5894 6.38054 62.0195 6.56912 62.3762 6.82057C 62.7538 7.07202 62.9427 7.41777 62.9427 7.8578C 62.9427 8.21402 62.8168 8.79026 62.5651 9.58652C 62.3133 10.3828 61.9881 11.2943 61.5894 12.321C 61.1907 13.3268 60.7397 14.385 60.2361 15.4956C 59.7535 16.6062 59.2814 17.6539 58.8198 18.6387C 58.3582 19.6236 57.9282 20.4931 57.5295 21.2475C 57.1308 21.9809 56.8371 22.4943 56.6483 22.7876C 56.4805 23.0181 56.3335 23.1543 56.2076 23.1962C 56.0818 23.2381 55.872 23.2591 55.5783 23.2591L 52.7772 23.2591C 52.3366 23.2591 51.9694 23.1858 51.6757 23.0391C 51.403 22.8714 51.1721 22.6619 50.9833 22.4105C 50.7944 22.159 50.6371 21.8761 50.5112 21.5618C 50.3853 21.2265 50.27 20.8808 50.1651 20.5246C 49.5566 18.4292 49.0215 16.6376 48.5599 15.1498C 48.1193 13.6411 47.7417 12.3839 47.427 11.3781C 47.1122 10.3723 46.8604 9.57604 46.6717 8.98933C 46.4828 8.38166 46.336 7.92067 46.2311 7.60635C 46.1261 7.27109 46.0526 7.05107 46.0107 6.9463C 45.9688 6.82057 45.9478 6.73676 45.9478 6.69485C 45.9687 6.54817 46.0737 6.39101 46.2625 6.22338C 46.4514 6.05575 46.6926 5.97193 46.9864 5.97193C 47.9515 5.97193 48.7698 6.01384 49.4412 6.09765C 50.1336 6.16052 50.7001 6.28624 51.1407 6.47483C 51.6022 6.66342 51.9485 6.92534 52.1793 7.26061C 52.4311 7.59588 52.6093 8.03591 52.7142 8.58072C 52.7352 8.7274 52.7772 9.02076 52.8402 9.46079C 52.9031 9.90083 52.966 10.4352 53.029 11.0638C 53.1129 11.6715 53.2074 12.3525 53.3123 13.1068C 53.4171 13.8402 53.5116 14.5841 53.5955 15.3384C 53.7004 16.0718 53.7948 16.7843 53.8788 17.4758C 53.9837 18.1672 54.0781 18.7644 54.162 19.2673ZM 65.9865 1.4144C 66.0075 1.24677 66.0704 1.13152 66.1753 1.06866C 66.3012 0.984845 66.4166 0.942936 66.5215 0.942936C 67.9482 0.942936 69.2805 0.901028 70.5185 0.817211C 71.7773 0.712441 72.7635 0.660055 73.4768 0.660055C 75.2602 0.660055 76.7499 0.838165 77.9459 1.19439C 79.1628 1.55061 80.1384 2.10589 80.8728 2.86024C 81.6281 3.61459 82.1631 4.58896 82.4778 5.78334C 82.7926 6.97773 82.9499 8.41309 82.9499 10.0894C 82.9499 11.7867 82.7716 13.4526 82.4149 15.087C 82.0792 16.7004 81.4812 18.1358 80.621 19.3931C 79.7608 20.6503 78.5963 21.6666 77.1276 22.4419C 75.6799 23.1962 73.844 23.5734 71.62 23.5734C 70.5919 23.5734 69.6477 23.5525 68.7875 23.5105C 67.9482 23.4686 67.2244 23.3429 66.6159 23.1334C 66.0074 22.9238 65.5354 22.6095 65.1997 22.1904C 64.864 21.7714 64.6961 21.1951 64.6961 20.4617C 64.6961 20.1893 64.7066 19.7807 64.7276 19.2359C 64.7695 18.6911 64.8115 18.0415 64.8535 17.2872C 64.9164 16.5328 64.9794 15.7051 65.0423 14.8041C 65.1262 13.8821 65.2102 12.9182 65.2941 11.9124C 65.4619 9.83797 65.5878 8.18259 65.6718 6.9463C 65.7767 5.71 65.8396 4.74611 65.8606 4.05463C 65.9025 3.34219 65.9235 2.80786 65.9235 2.45163C 65.9445 2.09541 65.9655 1.74967 65.9865 1.4144ZM 71.8403 18.6073C 73.0152 18.6073 73.9489 18.3558 74.6413 17.8529C 75.3547 17.35 75.9002 16.7109 76.2778 15.9356C 76.6555 15.1603 76.9073 14.3117 77.0332 13.3897C 77.1591 12.4677 77.222 11.5981 77.222 10.7809C 77.222 9.90083 77.1591 9.13601 77.0332 8.48643C 76.9283 7.81589 76.7289 7.26061 76.4352 6.82057C 76.1624 6.38054 75.7743 6.05575 75.2707 5.84621C 74.7672 5.61571 74.1377 5.50046 73.3824 5.50046C 73.1516 5.50046 72.8579 5.51094 72.5012 5.53189C 72.1445 5.55285 71.7144 5.58428 71.2108 5.62619C 71.1689 6.40149 71.1164 7.32347 71.0535 8.39213C 70.9905 9.43984 70.9171 10.5504 70.8332 11.7238C 70.7702 12.8763 70.6968 14.0497 70.6129 15.2441C 70.5289 16.4176 70.445 17.5072 70.3611 18.513C 70.6758 18.5549 70.9591 18.5863 71.2108 18.6073C 71.4626 18.6073 71.6724 18.6073 71.8403 18.6073ZM 95.5079 13.484C 95.3821 13.484 95.2352 13.484 95.0673 13.484C 94.9205 13.463 94.7736 13.4421 94.6267 13.4211C 94.4799 13.3792 94.354 13.3373 94.2491 13.2954C 94.1441 13.2325 94.0917 13.1592 94.0917 13.0754C 94.0917 12.803 94.1022 12.5515 94.1232 12.321C 94.1442 12.0905 94.1546 11.8496 94.1546 11.5981C 94.1546 11.1371 94.0917 10.76 93.9658 10.4666C 93.8399 10.1732 93.5881 10.0266 93.2105 10.0266C 92.623 10.0266 92.1299 10.4142 91.7313 11.1895C 91.3536 11.9439 91.1123 13.0859 91.0074 14.6155C 90.9655 15.286 90.9025 16.0509 90.8186 16.91C 90.7557 17.7482 90.6927 18.5654 90.6298 19.3616C 90.5668 20.1369 90.5144 20.8284 90.4724 21.4361C 90.4304 22.0438 90.4095 22.4419 90.4095 22.6305C 90.4095 22.84 90.336 22.9972 90.1892 23.1019C 90.0423 23.2067 89.8849 23.2591 89.7171 23.2591L 88.5841 23.2591C 87.9337 23.2591 87.3986 23.1962 86.979 23.0705C 86.5804 22.9238 86.2552 22.7248 86.0034 22.4733C 85.7726 22.2219 85.6047 21.918 85.4998 21.5618C 85.4159 21.1846 85.3739 20.7551 85.3739 20.2731C 85.3739 19.9588 85.3844 19.5188 85.4054 18.953C 85.4474 18.3663 85.5103 17.57 85.5942 16.5642C 85.6782 15.5375 85.7726 14.2488 85.8775 12.6982C 86.0034 11.1266 86.1502 9.18839 86.3181 6.88344C 86.3601 6.27577 86.5804 5.97193 86.979 5.97193L 88.2064 5.97193C 88.7939 5.97193 89.287 6.03479 89.6856 6.16052C 90.0843 6.28624 90.4095 6.46435 90.6612 6.69485C 90.913 6.90439 91.0914 7.15584 91.1963 7.4492C 91.3222 7.74256 91.4061 8.04639 91.448 8.3607C 91.6998 7.87876 91.9936 7.47015 92.3293 7.13488C 92.6859 6.77866 93.0531 6.49578 93.4308 6.28624C 93.8085 6.05575 94.1966 5.89859 94.5952 5.81477C 94.9939 5.71 95.3611 5.65762 95.6968 5.65762C 96.0954 5.65762 96.4941 5.73096 96.8927 5.87764C 97.3123 6.02432 97.69 6.24433 98.0257 6.53769C 98.3614 6.83105 98.6237 7.20822 98.8125 7.66922C 99.0223 8.13021 99.1272 8.67501 99.1272 9.30364C 99.1272 9.8694 99.0433 10.4037 98.8754 10.9066C 98.7076 11.4095 98.4663 11.86 98.1516 12.2582C 97.8369 12.6353 97.4487 12.9392 96.9871 13.1697C 96.5465 13.3792 96.0535 13.484 95.5079 13.484ZM 107.452 23.5734C 106.004 23.5734 104.797 23.3743 103.832 22.9762C 102.888 22.5571 102.133 21.9914 101.566 21.2789C 101 20.5665 100.601 19.7388 100.37 18.7959C 100.14 17.832 100.024 16.8052 100.024 15.7156C 100.024 14.4584 100.171 13.2325 100.465 12.0382C 100.78 10.8228 101.304 9.74368 102.038 8.80074C 102.773 7.8578 103.738 7.10345 104.934 6.53769C 106.151 5.95098 107.661 5.65762 109.466 5.65762C 112.109 5.65762 113.998 6.3072 115.131 7.60635C 116.285 8.88456 116.862 10.6866 116.862 13.0125C 116.862 13.6621 116.809 14.385 116.704 15.1813C 116.62 15.9566 116.442 16.7319 116.169 17.5072C 115.918 18.2825 115.561 19.0368 115.099 19.7702C 114.659 20.5036 114.092 21.1532 113.4 21.719C 112.707 22.2847 111.868 22.7352 110.882 23.0705C 109.917 23.4058 108.773 23.5734 107.452 23.5734ZM 108.931 9.83797C 108.133 9.83797 107.494 10.0475 107.011 10.4666C 106.549 10.8647 106.193 11.3571 105.941 11.9439C 105.71 12.5096 105.553 13.1173 105.469 13.7669C 105.406 14.3955 105.374 14.9298 105.374 15.3699C 105.374 16.7528 105.595 17.7691 106.035 18.4187C 106.476 19.0683 107.105 19.3931 107.924 19.3931C 108.658 19.3931 109.256 19.1626 109.718 18.7016C 110.2 18.2406 110.567 17.6853 110.819 17.0357C 111.092 16.3861 111.27 15.7051 111.354 14.9927C 111.459 14.2802 111.511 13.6831 111.511 13.2011C 111.511 12.1534 111.312 11.3362 110.914 10.7495C 110.536 10.1418 109.875 9.83797 108.931 9.83797ZM 130.101 5.65762C 132.073 5.65762 133.552 6.26529 134.539 7.48063C 135.546 8.69597 136.049 10.6133 136.049 13.2325C 136.049 14.867 135.86 16.3233 135.483 17.6015C 135.105 18.8797 134.581 19.9693 133.909 20.8703C 133.238 21.7504 132.451 22.4209 131.549 22.8819C 130.647 23.3429 129.671 23.5734 128.622 23.5734C 127.51 23.5734 126.639 23.3324 126.01 22.8505C 125.38 22.3685 124.887 21.6875 124.53 20.8075C 124.468 21.5618 124.415 22.138 124.373 22.5362C 124.331 22.9343 124.3 23.2486 124.279 23.4791C 124.258 23.7306 124.237 23.9506 124.216 24.1392C 124.216 24.3278 124.195 24.5792 124.153 24.8935C 124.132 25.2078 124.1 25.6374 124.058 26.1822C 124.016 26.727 123.953 27.4814 123.87 28.4452C 123.849 28.6967 123.796 28.8643 123.712 28.9481C 123.628 29.032 123.45 29.0739 123.177 29.0739L 122.044 29.0739C 121.394 29.0739 120.859 29.0005 120.439 28.8538C 120.04 28.7281 119.715 28.5395 119.463 28.2881C 119.233 28.0366 119.065 27.7223 118.96 27.3452C 118.876 26.9889 118.834 26.5698 118.834 26.0879C 118.834 25.8784 118.865 25.3126 118.928 24.3906C 118.991 23.4686 119.065 22.3685 119.149 21.0903C 119.254 19.7912 119.359 18.3977 119.463 16.91C 119.589 15.4222 119.705 14.0078 119.81 12.6668C 119.915 11.3048 119.998 10.0999 120.061 9.05219C 120.145 8.00448 120.208 7.28156 120.25 6.88344C 120.271 6.42244 120.324 6.15004 120.408 6.06622C 120.471 6.00336 120.638 5.97193 120.911 5.97193L 122.139 5.97193C 123.272 5.97193 124.09 6.2129 124.593 6.69485C 125.118 7.15584 125.38 7.71112 125.38 8.3607C 125.863 7.39681 126.482 6.70532 127.237 6.28624C 128.013 5.86716 128.968 5.65762 130.101 5.65762ZM 127.804 9.83797C 126.733 9.83797 125.947 10.299 125.443 11.2209C 124.94 12.1429 124.688 13.4002 124.688 14.9927C 124.688 15.5375 124.719 16.0718 124.782 16.5957C 124.866 17.1195 125.003 17.591 125.191 18.0101C 125.38 18.4292 125.632 18.7644 125.947 19.0159C 126.282 19.2673 126.702 19.3931 127.206 19.3931C 128.108 19.3931 128.863 18.953 129.472 18.0729C 130.08 17.1929 130.384 15.8099 130.384 13.924C 130.384 13.4002 130.342 12.8973 130.258 12.4153C 130.195 11.9124 130.07 11.4724 129.881 11.0952C 129.692 10.718 129.43 10.4142 129.094 10.1837C 128.758 9.95322 128.328 9.83797 127.804 9.83797Z"/>
<path id="path13_fill" d="M 1.512 5.318L 4.122 5.318L 7.866 15.038L 7.92 15.056L 11.466 5.318L 13.986 5.318L 13.986 17L 12.456 17L 12.456 7.118L 12.366 7.118L 8.604 17L 7.038 17L 3.168 7.118L 3.078 7.118L 3.078 17L 1.512 17L 1.512 5.318ZM 18.9779 17.126L 15.6119 8.288L 17.3759 8.288L 19.8059 15.398L 19.8419 15.398L 22.0379 8.288L 23.6759 8.288L 19.3019 20.744L 17.6099 20.744L 18.9779 17.126ZM 25.0432 15.056L 27.1312 15.056L 27.1312 17L 25.0432 17L 25.0432 15.056ZM 29.1087 15.902L 34.0047 9.386L 29.2887 9.386L 29.2887 8.288L 35.8407 8.288L 35.8407 9.386L 30.9447 15.902L 35.9487 15.902L 35.9487 17L 29.1087 17L 29.1087 15.902ZM 37.9665 5.138L 39.5865 5.138L 39.5865 6.83L 37.9665 6.83L 37.9665 5.138ZM 37.9665 8.288L 39.5865 8.288L 39.5865 17L 37.9665 17L 37.9665 8.288ZM 42.3962 8.288L 43.9982 8.288L 43.9982 9.224L 44.0162 9.224C 44.1482 8.48 45.1382 8.108 46.9862 8.108C 48.0902 8.108 48.9242 8.342 49.4882 8.81C 50.0522 9.266 50.3342 9.854 50.3342 10.574L 50.3342 14.156C 50.3342 14.672 50.2562 15.122 50.1002 15.506C 49.9562 15.89 49.7642 16.19 49.5242 16.406C 49.3082 16.61 49.0082 16.772 48.6242 16.892C 48.2522 17.012 47.8802 17.09 47.5082 17.126C 47.1722 17.162 46.7642 17.18 46.2842 17.18C 45.7562 17.18 45.2702 17.12 44.8262 17C 44.3942 16.868 44.1242 16.682 44.0162 16.442L 44.0162 20.744L 42.3962 20.744L 42.3962 8.288ZM 46.3202 16.082C 46.9442 16.082 47.4182 16.04 47.7422 15.956C 48.0782 15.86 48.3182 15.692 48.4622 15.452C 48.6062 15.212 48.6782 14.846 48.6782 14.354L 48.6782 11.15C 48.6782 10.61 48.6062 10.208 48.4622 9.944C 48.3182 9.68 48.0782 9.506 47.7422 9.422C 47.4182 9.326 46.9382 9.278 46.3022 9.278C 45.6662 9.278 45.1922 9.326 44.8802 9.422C 44.5682 9.506 44.3462 9.68 44.2142 9.944C 44.0822 10.196 44.0162 10.598 44.0162 11.15L 44.0162 14.354C 44.0162 14.846 44.0822 15.212 44.2142 15.452C 44.3582 15.692 44.5922 15.86 44.9162 15.956C 45.2402 16.04 45.7082 16.082 46.3202 16.082ZM 62.3145 14.444L 56.5005 14.444L 56.5005 13.022L 61.7925 5.318L 63.8085 5.318L 63.8085 13.202L 65.0685 13.202L 65.0685 14.444L 63.8085 14.444L 63.8085 17L 62.3145 17L 62.3145 14.444ZM 62.3145 13.202L 62.3145 6.74L 57.9405 13.202L 62.3145 13.202ZM 67.5179 5.318L 70.1279 5.318L 73.8719 15.038L 73.9259 15.056L 77.4719 5.318L 79.9919 5.318L 79.9919 17L 78.4619 17L 78.4619 7.118L 78.3719 7.118L 74.6099 17L 73.0439 17L 69.1739 7.118L 69.0839 7.118L 69.0839 17L 67.5179 17L 67.5179 5.318ZM 83.0218 5.318L 87.1978 5.318C 88.1938 5.318 88.9858 5.42 89.5738 5.624C 90.1138 5.816 90.4738 6.056 90.6538 6.344C 90.8458 6.632 90.9418 7.028 90.9418 7.532L 90.9418 9.098C 90.9418 9.566 90.8098 9.932 90.5458 10.196C 90.2818 10.448 89.8798 10.634 89.3398 10.754L 89.3398 10.826C 89.9758 10.934 90.4858 11.156 90.8698 11.492C 91.2658 11.816 91.4638 12.224 91.4638 12.716L 91.4638 14.678C 91.4638 15.53 91.1458 16.13 90.5098 16.478C 89.8738 16.826 88.8118 17 87.3238 17L 83.0218 17L 83.0218 5.318ZM 87.2518 10.43C 87.9838 10.43 88.5058 10.322 88.8178 10.106C 89.1418 9.878 89.3038 9.524 89.3038 9.044L 89.3038 7.676C 89.3038 7.232 89.1418 6.92 88.8178 6.74C 88.4938 6.56 87.9538 6.47 87.1978 6.47L 84.7678 6.47L 84.7678 10.43L 87.2518 10.43ZM 87.3238 15.794C 88.1998 15.794 88.8178 15.704 89.1778 15.524C 89.5378 15.344 89.7178 15.038 89.7178 14.606L 89.7178 12.842C 89.7178 12.53 89.6518 12.284 89.5198 12.104C 89.3998 11.912 89.2078 11.774 88.9438 11.69C 88.6798 11.618 88.4458 11.576 88.2418 11.564C 88.0378 11.54 87.7318 11.528 87.3238 11.528L 84.7678 11.528L 84.7678 15.794L 87.3238 15.794ZM 93.8088 15.056L 95.8968 15.056L 95.8968 17L 93.8088 17L 93.8088 15.056Z"/>
<path id="path14_stroke" d="M 0 0L 25.4558 0L 25.4558 -1L 0 -1L 0 0Z"/>
<path id="path15_fill" d="M 6.066 17.18C 2.79 17.18 1.152 16.124 1.152 14.012L 1.152 8.468C 1.152 6.236 2.79 5.12 6.066 5.12C 7.182 5.12 8.25 5.234 9.27 5.462L 9.27 6.758C 8.118 6.47 7.062 6.326 6.102 6.326C 5.634 6.326 5.226 6.356 4.878 6.416C 4.53 6.464 4.194 6.554 3.87 6.686C 3.174 6.986 2.826 7.574 2.826 8.45L 2.826 13.922C 2.826 15.266 3.942 15.938 6.174 15.938C 7.134 15.938 8.19 15.794 9.342 15.506L 9.342 16.838C 8.322 17.066 7.23 17.18 6.066 17.18ZM 11.5462 8.288L 13.1662 8.288L 13.1662 12.05C 13.3462 12.05 13.4902 12.014 13.5982 11.942C 13.7182 11.858 13.8622 11.732 14.0302 11.564L 17.0542 8.288L 19.0342 8.288L 15.0742 12.41C 15.2302 12.446 15.4522 12.608 15.7402 12.896C 16.0402 13.184 16.4782 13.652 17.0542 14.3L 19.4842 17L 17.4862 17L 15.1102 14.3C 14.7862 13.928 14.4682 13.634 14.1562 13.418C 13.9162 13.262 13.7482 13.172 13.6522 13.148C 13.5562 13.112 13.4602 13.094 13.3642 13.094C 13.2682 13.094 13.2022 13.094 13.1662 13.094L 13.1662 17L 11.5462 17L 11.5462 8.288ZM 23.2813 17.18C 22.4533 17.18 21.8113 17.102 21.3553 16.946C 20.9113 16.79 20.5873 16.514 20.3833 16.118C 20.1913 15.722 20.0953 15.152 20.0953 14.408C 20.0953 13.748 20.1853 13.238 20.3653 12.878C 20.5573 12.506 20.8753 12.242 21.3193 12.086C 21.7753 11.93 22.4173 11.852 23.2453 11.852L 25.8553 11.852L 25.8553 10.466C 25.8553 10.142 25.7893 9.896 25.6573 9.728C 25.5373 9.548 25.3273 9.422 25.0273 9.35C 24.7393 9.278 24.3133 9.242 23.7493 9.242C 22.8493 9.242 21.8533 9.314 20.7613 9.458L 20.7613 8.27C 21.9493 8.162 23.0233 8.108 23.9833 8.108C 24.9913 8.108 25.7353 8.186 26.2153 8.342C 26.6953 8.486 27.0253 8.744 27.2053 9.116C 27.3853 9.488 27.4753 10.064 27.4753 10.844L 27.4753 17L 25.9093 17L 25.9093 16.172C 25.7773 16.844 24.9013 17.18 23.2813 17.18ZM 23.5513 16.118C 24.1393 16.118 24.6373 16.076 25.0453 15.992C 25.5853 15.884 25.8553 15.632 25.8553 15.236L 25.8553 12.86L 23.3533 12.86C 22.8373 12.86 22.4653 12.902 22.2373 12.986C 22.0093 13.058 21.8593 13.202 21.7873 13.418C 21.7153 13.634 21.6793 13.982 21.6793 14.462C 21.6793 14.894 21.7213 15.23 21.8053 15.47C 21.8893 15.698 22.0393 15.866 22.2553 15.974C 22.4713 16.07 22.7953 16.118 23.2273 16.118L 23.5513 16.118ZM 36.1709 13.076C 36.0149 13.904 35.0609 14.318 33.3089 14.318C 32.1929 14.318 31.4069 14.12 30.9509 13.724C 30.5069 13.316 30.2849 12.68 30.2849 11.816L 30.2849 8.288L 31.9049 8.288L 31.9049 11.708C 31.9049 12.26 32.0489 12.638 32.3369 12.842C 32.6249 13.046 33.1049 13.148 33.7769 13.148C 34.4369 13.148 34.9349 13.106 35.2709 13.022C 35.6189 12.926 35.8529 12.776 35.9729 12.572C 36.1049 12.368 36.1709 12.08 36.1709 11.708L 36.1709 8.288L 37.7909 8.288L 37.7909 17L 36.1709 17L 36.1709 13.076ZM 43.2852 17.18C 42.4572 17.18 41.8152 17.102 41.3592 16.946C 40.9152 16.79 40.5912 16.514 40.3872 16.118C 40.1952 15.722 40.0992 15.152 40.0992 14.408C 40.0992 13.748 40.1892 13.238 40.3692 12.878C 40.5612 12.506 40.8792 12.242 41.3232 12.086C 41.7792 11.93 42.4212 11.852 43.2492 11.852L 45.8592 11.852L 45.8592 10.466C 45.8592 10.142 45.7932 9.896 45.6612 9.728C 45.5412 9.548 45.3312 9.422 45.0312 9.35C 44.7432 9.278 44.3172 9.242 43.7532 9.242C 42.8532 9.242 41.8572 9.314 40.7652 9.458L 40.7652 8.27C 41.9532 8.162 43.0272 8.108 43.9872 8.108C 44.9952 8.108 45.7392 8.186 46.2192 8.342C 46.6992 8.486 47.0292 8.744 47.2092 9.116C 47.3892 9.488 47.4792 10.064 47.4792 10.844L 47.4792 17L 45.9132 17L 45.9132 16.172C 45.7812 16.844 44.9052 17.18 43.2852 17.18ZM 43.5552 16.118C 44.1432 16.118 44.6412 16.076 45.0492 15.992C 45.5892 15.884 45.8592 15.632 45.8592 15.236L 45.8592 12.86L 43.3572 12.86C 42.8412 12.86 42.4692 12.902 42.2412 12.986C 42.0132 13.058 41.8632 13.202 41.7912 13.418C 41.7192 13.634 41.6832 13.982 41.6832 14.462C 41.6832 14.894 41.7252 15.23 41.8092 15.47C 41.8932 15.698 42.0432 15.866 42.2592 15.974C 42.4752 16.07 42.7992 16.118 43.2312 16.118L 43.5552 16.118ZM 52.4848 9.476L 49.4248 9.476L 49.4248 8.288L 57.1468 8.288L 57.1468 9.476L 54.1048 9.476L 54.1048 17L 52.4848 17L 52.4848 9.476ZM 59.0954 8.288L 60.7154 8.288L 60.7154 11.438L 62.9474 11.438C 63.6914 11.438 64.2794 11.492 64.7114 11.6C 65.1554 11.708 65.4794 11.9 65.6834 12.176C 65.8874 12.44 65.9894 12.818 65.9894 13.31L 65.9894 15.11C 65.9894 16.37 64.9274 17 62.8034 17L 59.0954 17L 59.0954 8.288ZM 62.6954 15.956C 63.0434 15.956 63.4034 15.908 63.7754 15.812C 64.1954 15.704 64.4054 15.398 64.4054 14.894L 64.4054 13.796C 64.4054 13.448 64.3574 13.184 64.2614 13.004C 64.1774 12.824 64.0154 12.698 63.7754 12.626C 63.5474 12.554 63.1994 12.518 62.7314 12.518L 60.6974 12.518L 60.6974 15.956L 62.6954 15.956Z"/>
<path id="path16_fill" d="M 0 5C 0 2.23858 2.23858 0 5 0L 94 0C 96.7614 0 99 2.23858 99 5L 99 20C 99 22.7614 96.7614 25 94 25L 5 25C 2.23858 25 0 22.7614 0 20L 0 5Z"/>
<path id="path17_fill" d="M 4.734 17.18C 3.486 17.18 2.232 17.066 0.972 16.838L 0.972 15.506C 2.4 15.806 3.594 15.956 4.554 15.956C 5.454 15.956 6.138 15.866 6.606 15.686C 7.074 15.494 7.308 15.134 7.308 14.606L 7.308 12.644C 7.308 11.9 6.504 11.528 4.896 11.528L 2.466 11.528L 2.466 10.412L 4.59 10.412C 6.21 10.412 7.02 10.028 7.02 9.26L 7.02 7.298C 7.02 6.674 6.24 6.362 4.68 6.362C 4.26 6.362 3.558 6.392 2.574 6.452L 1.206 6.56L 1.206 5.336C 2.766 5.24 3.918 5.192 4.662 5.192C 6.018 5.192 7.02 5.342 7.668 5.642C 8.328 5.942 8.658 6.446 8.658 7.154L 8.658 9.332C 8.658 9.704 8.508 10.016 8.208 10.268C 7.908 10.508 7.524 10.664 7.056 10.736L 7.056 10.808C 7.344 10.856 7.578 10.91 7.758 10.97C 7.95 11.018 8.154 11.096 8.37 11.204C 8.79 11.42 9 11.798 9 12.338L 9 14.678C 9 15.614 8.622 16.268 7.866 16.64C 7.11 17 6.066 17.18 4.734 17.18ZM 14.5274 17.18C 13.6994 17.18 13.0574 17.102 12.6014 16.946C 12.1574 16.79 11.8334 16.514 11.6294 16.118C 11.4374 15.722 11.3414 15.152 11.3414 14.408C 11.3414 13.748 11.4314 13.238 11.6114 12.878C 11.8034 12.506 12.1214 12.242 12.5654 12.086C 13.0214 11.93 13.6634 11.852 14.4914 11.852L 17.1014 11.852L 17.1014 10.466C 17.1014 10.142 17.0354 9.896 16.9034 9.728C 16.7834 9.548 16.5734 9.422 16.2734 9.35C 15.9854 9.278 15.5594 9.242 14.9954 9.242C 14.0954 9.242 13.0994 9.314 12.0074 9.458L 12.0074 8.27C 13.1954 8.162 14.2694 8.108 15.2294 8.108C 16.2374 8.108 16.9814 8.186 17.4614 8.342C 17.9414 8.486 18.2714 8.744 18.4514 9.116C 18.6314 9.488 18.7214 10.064 18.7214 10.844L 18.7214 17L 17.1554 17L 17.1554 16.172C 17.0234 16.844 16.1474 17.18 14.5274 17.18ZM 14.7974 16.118C 15.3854 16.118 15.8834 16.076 16.2914 15.992C 16.8314 15.884 17.1014 15.632 17.1014 15.236L 17.1014 12.86L 14.5994 12.86C 14.0834 12.86 13.7114 12.902 13.4834 12.986C 13.2554 13.058 13.1054 13.202 13.0334 13.418C 12.9614 13.634 12.9254 13.982 12.9254 14.462C 12.9254 14.894 12.9674 15.23 13.0514 15.47C 13.1354 15.698 13.2854 15.866 13.5014 15.974C 13.7174 16.07 14.0414 16.118 14.4734 16.118L 14.7974 16.118ZM 21.639 8.288L 27.327 8.288L 27.327 9.476L 23.259 9.476L 23.259 17L 21.639 17L 21.639 8.288ZM 29.0895 8.288L 30.7095 8.288L 30.7095 9.224C 30.8415 8.48 31.8315 8.108 33.6795 8.108C 34.7835 8.108 35.6175 8.342 36.1815 8.81C 36.7455 9.266 37.0275 9.854 37.0275 10.574L 37.0275 14.156C 37.0275 14.672 36.9495 15.122 36.7935 15.506C 36.6495 15.89 36.4575 16.19 36.2175 16.406C 36.0015 16.61 35.7015 16.772 35.3175 16.892C 34.9455 17.012 34.5735 17.09 34.2015 17.126C 33.8655 17.162 33.4575 17.18 32.9775 17.18C 32.4495 17.18 31.9635 17.12 31.5195 17C 31.0875 16.868 30.8175 16.682 30.7095 16.442L 30.7095 20.564L 29.0895 20.564L 29.0895 8.288ZM 33.0135 16.082C 33.6375 16.082 34.1115 16.04 34.4355 15.956C 34.7715 15.86 35.0115 15.692 35.1555 15.452C 35.2995 15.212 35.3715 14.846 35.3715 14.354L 35.3715 11.15C 35.3715 10.61 35.2995 10.208 35.1555 9.944C 35.0115 9.68 34.7715 9.506 34.4355 9.422C 34.1115 9.326 33.6315 9.278 32.9955 9.278C 32.3595 9.278 31.8735 9.326 31.5375 9.422C 31.2135 9.506 30.9795 9.68 30.8355 9.944C 30.6915 10.208 30.6195 10.61 30.6195 11.15L 30.6195 14.354C 30.6195 14.834 30.6915 15.2 30.8355 15.452C 30.9915 15.692 31.2375 15.86 31.5735 15.956C 31.9095 16.04 32.3895 16.082 33.0135 16.082ZM 41.5834 17.126L 38.2174 8.288L 39.9814 8.288L 42.4114 15.398L 42.4474 15.398L 44.6434 8.288L 46.2814 8.288L 41.9074 20.744L 40.2154 20.744L 41.5834 17.126ZM 49.7367 17.18C 49.0287 17.18 48.2127 17.078 47.2887 16.874L 47.2887 15.596C 48.1887 15.86 49.0047 15.992 49.7367 15.992C 50.5647 15.992 51.1707 15.902 51.5547 15.722C 51.9387 15.53 52.1307 15.17 52.1307 14.642L 52.1307 14.084C 52.1307 13.64 51.9327 13.346 51.5367 13.202C 51.1527 13.046 50.6067 12.968 49.8987 12.968L 48.9087 12.968L 48.9087 11.852L 49.5927 11.852C 50.3247 11.852 50.8827 11.768 51.2667 11.6C 51.6507 11.432 51.8427 11.132 51.8427 10.7L 51.8427 10.16C 51.8427 9.536 51.1227 9.224 49.6827 9.224C 48.9267 9.224 48.1887 9.296 47.4687 9.44L 47.4687 8.27C 48.1527 8.162 48.8847 8.108 49.6647 8.108C 50.5887 8.108 51.3087 8.156 51.8247 8.252C 52.3407 8.348 52.7427 8.528 53.0307 8.792C 53.3307 9.056 53.4807 9.482 53.4807 10.07L 53.4807 10.772C 53.4807 11.156 53.3367 11.474 53.0487 11.726C 52.7727 11.966 52.4127 12.122 51.9687 12.194L 51.9687 12.266C 53.2047 12.458 53.8227 12.992 53.8227 13.868L 53.8227 14.768C 53.8227 15.176 53.7387 15.542 53.5707 15.866C 53.4147 16.178 53.2047 16.418 52.9407 16.586C 52.5807 16.814 52.1247 16.97 51.5727 17.054C 51.0327 17.138 50.4207 17.18 49.7367 17.18ZM 64.0765 8.288L 64.0765 17L 62.4565 17L 62.4565 10.574L 57.9205 17L 56.3005 17L 56.3005 8.288L 57.9205 8.288L 57.9205 14.93L 62.5465 8.288L 64.0765 8.288ZM 69.0785 9.476L 66.0185 9.476L 66.0185 8.288L 73.7405 8.288L 73.7405 9.476L 70.6985 9.476L 70.6985 17L 69.0785 17L 69.0785 9.476ZM 75.6892 8.288L 77.3092 8.288L 77.3092 11.438L 79.5412 11.438C 80.2852 11.438 80.8732 11.492 81.3052 11.6C 81.7492 11.708 82.0732 11.9 82.2772 12.176C 82.4812 12.44 82.5832 12.818 82.5832 13.31L 82.5832 15.11C 82.5832 16.37 81.5212 17 79.3972 17L 75.6892 17L 75.6892 8.288ZM 79.2892 15.956C 79.6372 15.956 79.9972 15.908 80.3692 15.812C 80.7892 15.704 80.9992 15.398 80.9992 14.894L 80.9992 13.796C 80.9992 13.448 80.9512 13.184 80.8552 13.004C 80.7712 12.824 80.6092 12.698 80.3692 12.626C 80.1412 12.554 79.7932 12.518 79.3252 12.518L 77.2912 12.518L 77.2912 15.956L 79.2892 15.956Z"/>
<path id="path18_fill" d="M 0 5C 0 2.23858 2.23858 0 5 0L 72 0C 74.7614 0 77 2.23858 77 5L 77 19C 77 21.7614 74.7614 24 72 24L 5 24C 2.23858 24 0 21.7614 0 19L 0 5Z"/>
<path id="path19_fill" d="M 6.084 17.18C 2.82 17.18 1.188 16.124 1.188 14.012L 1.188 8.486C 1.188 6.254 2.82 5.138 6.084 5.138C 9.384 5.138 11.034 6.248 11.034 8.468L 11.034 14.012C 11.034 15.14 10.578 15.95 9.666 16.442C 8.754 16.934 7.56 17.18 6.084 17.18ZM 6.12 16.01C 8.268 16.01 9.342 15.338 9.342 13.994L 9.342 8.432C 9.342 6.992 8.262 6.272 6.102 6.272C 5.058 6.272 4.254 6.434 3.69 6.758C 3.138 7.082 2.862 7.64 2.862 8.432L 2.862 13.994C 2.862 15.338 3.948 16.01 6.12 16.01ZM 15.8168 9.476L 12.7568 9.476L 12.7568 8.288L 20.4788 8.288L 20.4788 9.476L 17.4368 9.476L 17.4368 17L 15.8168 17L 15.8168 9.476ZM 22.4094 8.288L 24.0294 8.288L 24.0294 12.05C 24.2094 12.05 24.3534 12.014 24.4614 11.942C 24.5814 11.858 24.7254 11.732 24.8934 11.564L 27.9174 8.288L 29.8974 8.288L 25.9374 12.41C 26.0934 12.446 26.3154 12.608 26.6034 12.896C 26.9034 13.184 27.3414 13.652 27.9174 14.3L 30.3474 17L 28.3494 17L 25.9734 14.3C 25.6494 13.928 25.3314 13.634 25.0194 13.418C 24.7794 13.262 24.6114 13.172 24.5154 13.148C 24.4194 13.112 24.3234 13.094 24.2274 13.094C 24.1314 13.094 24.0654 13.094 24.0294 13.094L 24.0294 17L 22.4094 17L 22.4094 8.288ZM 31.4626 8.288L 33.0826 8.288L 33.0826 9.224C 33.2146 8.48 34.2046 8.108 36.0526 8.108C 37.1566 8.108 37.9906 8.342 38.5546 8.81C 39.1186 9.266 39.4006 9.854 39.4006 10.574L 39.4006 14.156C 39.4006 14.672 39.3226 15.122 39.1666 15.506C 39.0226 15.89 38.8306 16.19 38.5906 16.406C 38.3746 16.61 38.0746 16.772 37.6906 16.892C 37.3186 17.012 36.9466 17.09 36.5746 17.126C 36.2386 17.162 35.8306 17.18 35.3506 17.18C 34.8226 17.18 34.3366 17.12 33.8926 17C 33.4606 16.868 33.1906 16.682 33.0826 16.442L 33.0826 20.564L 31.4626 20.564L 31.4626 8.288ZM 35.3866 16.082C 36.0106 16.082 36.4846 16.04 36.8086 15.956C 37.1446 15.86 37.3846 15.692 37.5286 15.452C 37.6726 15.212 37.7446 14.846 37.7446 14.354L 37.7446 11.15C 37.7446 10.61 37.6726 10.208 37.5286 9.944C 37.3846 9.68 37.1446 9.506 36.8086 9.422C 36.4846 9.326 36.0046 9.278 35.3686 9.278C 34.7326 9.278 34.2466 9.326 33.9106 9.422C 33.5866 9.506 33.3526 9.68 33.2086 9.944C 33.0646 10.208 32.9926 10.61 32.9926 11.15L 32.9926 14.354C 32.9926 14.834 33.0646 15.2 33.2086 15.452C 33.3646 15.692 33.6106 15.86 33.9466 15.956C 34.2826 16.04 34.7626 16.082 35.3866 16.082ZM 41.8864 8.288L 43.5424 8.288L 43.5424 11.438L 45.2344 11.438C 45.9784 11.438 46.5664 11.492 46.9984 11.6C 47.4424 11.708 47.7664 11.9 47.9704 12.176C 48.1744 12.44 48.2764 12.818 48.2764 13.31L 48.2764 15.11C 48.2764 16.37 47.2144 17 45.0904 17L 41.8864 17L 41.8864 8.288ZM 49.6624 8.288L 51.2824 8.288L 51.2824 17L 49.6624 17L 49.6624 8.288ZM 44.9824 15.956C 45.3304 15.956 45.6904 15.908 46.0624 15.812C 46.4824 15.704 46.6924 15.398 46.6924 14.894L 46.6924 13.796C 46.6924 13.448 46.6444 13.184 46.5484 13.004C 46.4644 12.824 46.3024 12.698 46.0624 12.626C 45.8344 12.554 45.4864 12.518 45.0184 12.518L 43.5244 12.518L 43.5244 15.956L 44.9824 15.956ZM 56.2816 9.476L 53.2216 9.476L 53.2216 8.288L 60.9436 8.288L 60.9436 9.476L 57.9016 9.476L 57.9016 17L 56.2816 17L 56.2816 9.476ZM 62.8923 8.288L 64.5123 8.288L 64.5123 11.438L 66.7443 11.438C 67.4883 11.438 68.0763 11.492 68.5083 11.6C 68.9523 11.708 69.2763 11.9 69.4803 12.176C 69.6843 12.44 69.7863 12.818 69.7863 13.31L 69.7863 15.11C 69.7863 16.37 68.7243 17 66.6003 17L 62.8923 17L 62.8923 8.288ZM 66.4923 15.956C 66.8403 15.956 67.2003 15.908 67.5723 15.812C 67.9923 15.704 68.2023 15.398 68.2023 14.894L 68.2023 13.796C 68.2023 13.448 68.1543 13.184 68.0583 13.004C 67.9743 12.824 67.8123 12.698 67.5723 12.626C 67.3443 12.554 66.9963 12.518 66.5283 12.518L 64.4943 12.518L 64.4943 15.956L 66.4923 15.956Z"/>
<path id="path20_fill" d="M 6.066 17.18C 2.79 17.18 1.152 16.124 1.152 14.012L 1.152 8.468C 1.152 6.236 2.79 5.12 6.066 5.12C 7.182 5.12 8.25 5.234 9.27 5.462L 9.27 6.758C 8.118 6.47 7.062 6.326 6.102 6.326C 5.634 6.326 5.226 6.356 4.878 6.416C 4.53 6.464 4.194 6.554 3.87 6.686C 3.174 6.986 2.826 7.574 2.826 8.45L 2.826 13.922C 2.826 15.266 3.942 15.938 6.174 15.938C 7.134 15.938 8.19 15.794 9.342 15.506L 9.342 16.838C 8.322 17.066 7.23 17.18 6.066 17.18ZM 14.2462 17.18C 13.4182 17.18 12.7762 17.102 12.3202 16.946C 11.8762 16.79 11.5522 16.514 11.3482 16.118C 11.1562 15.722 11.0602 15.152 11.0602 14.408C 11.0602 13.748 11.1502 13.238 11.3302 12.878C 11.5222 12.506 11.8402 12.242 12.2842 12.086C 12.7402 11.93 13.3822 11.852 14.2102 11.852L 16.8202 11.852L 16.8202 10.466C 16.8202 10.142 16.7542 9.896 16.6222 9.728C 16.5022 9.548 16.2922 9.422 15.9922 9.35C 15.7042 9.278 15.2782 9.242 14.7142 9.242C 13.8142 9.242 12.8182 9.314 11.7262 9.458L 11.7262 8.27C 12.9142 8.162 13.9882 8.108 14.9482 8.108C 15.9562 8.108 16.7002 8.186 17.1802 8.342C 17.6602 8.486 17.9902 8.744 18.1702 9.116C 18.3502 9.488 18.4402 10.064 18.4402 10.844L 18.4402 17L 16.8742 17L 16.8742 16.172C 16.7422 16.844 15.8662 17.18 14.2462 17.18ZM 14.5162 16.118C 15.1042 16.118 15.6022 16.076 16.0102 15.992C 16.5502 15.884 16.8202 15.632 16.8202 15.236L 16.8202 12.86L 14.3182 12.86C 13.8022 12.86 13.4302 12.902 13.2022 12.986C 12.9742 13.058 12.8242 13.202 12.7522 13.418C 12.6802 13.634 12.6442 13.982 12.6442 14.462C 12.6442 14.894 12.6862 15.23 12.7702 15.47C 12.8542 15.698 13.0042 15.866 13.2202 15.974C 13.4362 16.07 13.7602 16.118 14.1922 16.118L 14.5162 16.118ZM 24.9037 17.18C 24.1597 17.18 23.5777 17.102 23.1577 16.946C 22.7377 16.778 22.4317 16.502 22.2397 16.118C 22.0597 15.722 21.9697 15.17 21.9697 14.462L 21.9697 9.35L 20.0257 9.35L 20.0257 8.288L 21.9697 8.288L 21.9697 5.588L 23.6077 5.588L 23.6077 8.288L 26.7217 8.288L 26.7217 9.35L 23.6077 9.35L 23.6077 14.552C 23.6077 14.984 23.6557 15.308 23.7517 15.524C 23.8597 15.74 24.0397 15.896 24.2917 15.992C 24.5557 16.076 24.9337 16.118 25.4257 16.118C 25.5817 16.118 26.0137 16.07 26.7217 15.974L 26.7217 17.036C 26.1097 17.132 25.5037 17.18 24.9037 17.18ZM 28.3479 15.056L 30.4359 15.056L 30.4359 17L 28.3479 17L 28.3479 15.056ZM 33.1154 5.138L 34.7354 5.138L 34.7354 6.83L 33.1154 6.83L 33.1154 5.138ZM 31.8374 20.96C 31.5014 20.96 31.1954 20.936 30.9194 20.888L 30.9194 19.826C 31.1714 19.874 31.3994 19.898 31.6034 19.898C 32.1314 19.898 32.5154 19.79 32.7554 19.574C 32.9954 19.37 33.1154 18.992 33.1154 18.44L 33.1154 8.288L 34.7354 8.288L 34.7354 18.314C 34.7354 19.286 34.5074 19.97 34.0514 20.366C 33.5954 20.762 32.8574 20.96 31.8374 20.96ZM 37.5446 8.288L 39.1466 8.288L 39.1466 9.224L 39.1646 9.224C 39.2966 8.48 40.2866 8.108 42.1346 8.108C 43.2386 8.108 44.0726 8.342 44.6366 8.81C 45.2006 9.266 45.4826 9.854 45.4826 10.574L 45.4826 14.156C 45.4826 14.672 45.4046 15.122 45.2486 15.506C 45.1046 15.89 44.9126 16.19 44.6726 16.406C 44.4566 16.61 44.1566 16.772 43.7726 16.892C 43.4006 17.012 43.0286 17.09 42.6566 17.126C 42.3206 17.162 41.9126 17.18 41.4326 17.18C 40.9046 17.18 40.4186 17.12 39.9746 17C 39.5426 16.868 39.2726 16.682 39.1646 16.442L 39.1646 20.744L 37.5446 20.744L 37.5446 8.288ZM 41.4686 16.082C 42.0926 16.082 42.5666 16.04 42.8906 15.956C 43.2266 15.86 43.4666 15.692 43.6106 15.452C 43.7546 15.212 43.8266 14.846 43.8266 14.354L 43.8266 11.15C 43.8266 10.61 43.7546 10.208 43.6106 9.944C 43.4666 9.68 43.2266 9.506 42.8906 9.422C 42.5666 9.326 42.0866 9.278 41.4506 9.278C 40.8146 9.278 40.3406 9.326 40.0286 9.422C 39.7166 9.506 39.4946 9.68 39.3626 9.944C 39.2306 10.196 39.1646 10.598 39.1646 11.15L 39.1646 14.354C 39.1646 14.846 39.2306 15.212 39.3626 15.452C 39.5066 15.692 39.7406 15.86 40.0646 15.956C 40.3886 16.04 40.8566 16.082 41.4686 16.082ZM 51.2625 20.96C 50.0745 20.96 49.0725 20.894 48.2565 20.762L 48.2565 19.61C 49.6965 19.778 50.7465 19.862 51.4065 19.862C 52.2345 19.862 52.8345 19.73 53.2065 19.466C 53.5905 19.202 53.7825 18.764 53.7825 18.152L 53.7825 16.064C 53.7585 16.448 53.4945 16.73 52.9905 16.91C 52.4985 17.09 51.8745 17.18 51.1185 17.18C 50.2185 17.18 49.5165 17.096 49.0125 16.928C 48.5205 16.76 48.1665 16.484 47.9505 16.1C 47.7465 15.716 47.6445 15.194 47.6445 14.534L 47.6445 10.988C 47.6445 9.956 47.9205 9.218 48.4725 8.774C 49.0365 8.33 49.9545 8.108 51.2265 8.108C 52.7385 8.108 53.6265 8.45 53.8905 9.134L 53.8905 8.288L 55.4025 8.288L 55.4025 17.828C 55.4025 18.632 55.2525 19.262 54.9525 19.718C 54.6525 20.174 54.2025 20.492 53.6025 20.672C 53.0025 20.864 52.2225 20.96 51.2625 20.96ZM 51.4605 16.1C 52.3125 16.1 52.9125 15.998 53.2605 15.794C 53.6085 15.59 53.7825 15.206 53.7825 14.642L 53.7825 10.7C 53.7825 10.304 53.7165 10.004 53.5845 9.8C 53.4645 9.596 53.2365 9.452 52.9005 9.368C 52.5645 9.272 52.0725 9.224 51.4245 9.224C 50.8125 9.224 50.3505 9.266 50.0385 9.35C 49.7385 9.434 49.5285 9.584 49.4085 9.8C 49.3005 10.004 49.2465 10.304 49.2465 10.7L 49.2465 14.642C 49.2465 15.05 49.3065 15.356 49.4265 15.56C 49.5465 15.764 49.7625 15.908 50.0745 15.992C 50.3865 16.064 50.8485 16.1 51.4605 16.1ZM 62.2569 14.912C 62.2569 14.576 62.3109 14.264 62.4189 13.976C 62.5389 13.676 62.6889 13.424 62.8689 13.22C 63.0129 13.052 63.2289 12.872 63.5169 12.68C 63.8169 12.476 64.0989 12.308 64.3629 12.176C 64.5909 12.056 64.8909 11.918 65.2629 11.762L 67.2069 10.898C 67.9749 10.562 68.3589 10.04 68.3589 9.332L 68.3589 7.73C 68.3589 7.178 68.1909 6.812 67.8549 6.632C 67.5189 6.44 66.9309 6.344 66.0909 6.344C 65.2629 6.344 64.1229 6.47 62.6709 6.722L 62.6709 5.462C 63.8829 5.234 65.1369 5.12 66.4329 5.12C 67.7289 5.12 68.6649 5.318 69.2409 5.714C 69.8169 6.098 70.1049 6.746 70.1049 7.658L 70.1049 9.566C 70.1049 9.998 70.0329 10.358 69.8889 10.646C 69.7449 10.922 69.5109 11.174 69.1869 11.402C 68.8749 11.618 68.4129 11.864 67.8009 12.14L 65.1009 13.382C 64.3089 13.742 63.9129 14.27 63.9129 14.966L 63.9129 15.74L 70.1049 15.74L 70.1049 17L 62.2569 17L 62.2569 14.912ZM 72.9143 5.318L 75.5243 5.318L 79.2683 15.038L 79.3223 15.056L 82.8683 5.318L 85.3883 5.318L 85.3883 17L 83.8583 17L 83.8583 7.118L 83.7683 7.118L 80.0063 17L 78.4403 17L 74.5703 7.118L 74.4803 7.118L 74.4803 17L 72.9143 17L 72.9143 5.318ZM 88.4183 5.318L 92.5943 5.318C 93.5902 5.318 94.3822 5.42 94.9702 5.624C 95.5102 5.816 95.8702 6.056 96.0503 6.344C 96.2423 6.632 96.3383 7.028 96.3383 7.532L 96.3383 9.098C 96.3383 9.566 96.2062 9.932 95.9423 10.196C 95.6783 10.448 95.2763 10.634 94.7362 10.754L 94.7362 10.826C 95.3722 10.934 95.8822 11.156 96.2662 11.492C 96.6623 11.816 96.8603 12.224 96.8603 12.716L 96.8603 14.678C 96.8603 15.53 96.5422 16.13 95.9062 16.478C 95.2703 16.826 94.2082 17 92.7202 17L 88.4183 17L 88.4183 5.318ZM 92.6483 10.43C 93.3803 10.43 93.9023 10.322 94.2143 10.106C 94.5383 9.878 94.7002 9.524 94.7002 9.044L 94.7002 7.676C 94.7002 7.232 94.5383 6.92 94.2143 6.74C 93.8903 6.56 93.3503 6.47 92.5943 6.47L 90.1642 6.47L 90.1642 10.43L 92.6483 10.43ZM 92.7202 15.794C 93.5962 15.794 94.2143 15.704 94.5743 15.524C 94.9343 15.344 95.1142 15.038 95.1142 14.606L 95.1142 12.842C 95.1142 12.53 95.0483 12.284 94.9163 12.104C 94.7963 11.912 94.6042 11.774 94.3402 11.69C 94.0763 11.618 93.8422 11.576 93.6382 11.564C 93.4343 11.54 93.1282 11.528 92.7202 11.528L 90.1642 11.528L 90.1642 15.794L 92.7202 15.794ZM 99.2053 15.056L 101.293 15.056L 101.293 17L 99.2053 17L 99.2053 15.056Z"/>
<path id="path21_stroke" d="M 0 0L 290 0L 290 -1L 0 -1L 0 0Z"/>
</defs>
</svg>
